<svg width="660" height="502" viewBox="0 0 660 502" fill="none" xmlns="http://www.w3.org/2000/svg">
<path d="M48.3726 0.11142H426.627C439.452 0.125733 451.748 5.18186 460.816 14.1705C469.885 23.1592 474.986 35.3464 475 48.0583V253.171C474.986 265.883 469.885 278.071 460.816 287.059C451.748 296.048 439.452 301.104 426.627 301.118H48.3726C35.5478 301.104 23.2524 296.048 14.1839 287.059C5.11542 278.071 0.0144114 265.883 0 253.171V48.0583C0.0144087 35.3464 5.11542 23.1592 14.1839 14.1705C23.2524 5.18186 35.5478 0.125733 48.3726 0.11142Z" fill="#F2F2F2"/>
<path d="M48.4353 13.9876H426.564C435.694 13.9978 444.447 17.5964 450.903 23.994C457.358 30.3916 460.99 39.0657 461 48.1133V253.116C460.99 262.164 457.358 270.838 450.903 277.236C444.447 283.633 435.694 287.232 426.564 287.242H48.4353C39.3056 287.232 30.5528 283.633 24.0972 277.236C17.6415 270.838 14.0102 262.164 14 253.116V48.1133C14.0102 39.0658 17.6415 30.3917 24.0971 23.9941C30.5528 17.5965 39.3056 13.9979 48.4353 13.9876Z" fill="white"/>
<path d="M51.6551 374.769C50.5062 374.766 49.3692 374.537 48.3093 374.097C46.7273 373.466 45.3741 372.375 44.4269 370.968C43.4797 369.56 42.9825 367.902 43.0005 366.209V294.718L139 291.512L57.6815 372.246C56.8952 373.042 55.9576 373.675 54.9231 374.108C53.8886 374.541 52.7778 374.765 51.6551 374.769Z" fill="#F2F2F2"/>
<path d="M379.36 65.2228H94.6404C83.241 65.2228 74 74.3028 74 85.5034V85.5035C74 96.7041 83.241 105.784 94.6404 105.784H379.36C390.759 105.784 400 96.7041 400 85.5034C400 74.3028 390.759 65.2228 379.36 65.2228Z" fill="#F2F2F2"/>
<path d="M380.36 130.334H95.6404C84.241 130.334 75 139.414 75 150.615V150.615C75 161.816 84.241 170.895 95.6404 170.895H380.36C391.759 170.895 401 161.816 401 150.615C401 139.414 391.759 130.334 380.36 130.334Z" fill="#F2F2F2"/>
<path d="M380.36 195.446H95.6404C84.241 195.446 75 204.526 75 215.726V215.726C75 226.927 84.241 236.007 95.6404 236.007H380.36C391.759 236.007 401 226.927 401 215.726C401 204.526 391.759 195.446 380.36 195.446Z" fill="#F2F2F2"/>
<path d="M610.947 100.369H232.409C219.574 100.384 207.27 105.799 198.195 115.425C189.119 125.051 184.014 138.102 184 151.716V371.375C184.014 384.989 189.119 398.04 198.195 407.666C207.27 417.293 219.574 422.707 232.409 422.723H610.947C623.782 422.707 636.086 417.293 645.162 407.666C654.237 398.04 659.342 384.989 659.356 371.375V151.716C659.342 138.102 654.237 125.051 645.162 115.425C636.086 105.799 623.782 100.384 610.947 100.369Z" fill="#63FF83"/>
<path d="M611.012 115.312H232.473C223.334 115.323 214.571 119.179 208.108 126.034C201.646 132.889 198.01 142.183 198 151.878V371.537C198.01 381.232 201.646 390.526 208.108 397.381C214.571 404.236 223.334 408.092 232.473 408.103H611.012C620.152 408.092 628.914 404.236 635.377 397.381C641.839 390.526 645.475 381.232 645.485 371.537V151.878C645.475 142.183 641.839 132.889 635.377 126.034C628.914 119.179 620.152 115.323 611.012 115.312Z" fill="white"/>
<path d="M582.151 498.689L501.304 412.935L596.746 416.341V492.276C596.764 494.074 596.27 495.836 595.328 497.331C594.386 498.825 593.041 499.984 591.468 500.654C590.415 501.122 589.284 501.365 588.142 501.368C587.026 501.364 585.921 501.126 584.893 500.666C583.865 500.206 582.932 499.534 582.151 498.689Z" fill="#63FF83"/>
<path d="M302.153 236.482C316.597 236.482 328.307 224.062 328.307 208.741C328.307 193.42 316.597 181 302.153 181C287.709 181 276 193.42 276 208.741C276 224.062 287.709 236.482 302.153 236.482Z" fill="#63FF83"/>
<path d="M374.153 236.482C388.597 236.482 400.307 224.062 400.307 208.741C400.307 193.42 388.597 181 374.153 181C359.709 181 348 193.42 348 208.741C348 224.062 359.709 236.482 374.153 236.482Z" fill="#63FF83"/>
<path d="M447.153 236.482C461.597 236.482 473.307 224.062 473.307 208.741C473.307 193.42 461.597 181 447.153 181C432.709 181 421 193.42 421 208.741C421 224.062 432.709 236.482 447.153 236.482Z" fill="#63FF83"/>
</svg>
