<svg width="229" height="183" viewBox="0 0 229 183" fill="none" xmlns="http://www.w3.org/2000/svg">
<path d="M167.96 124.61C167.96 124.61 186.812 72.4676 177.045 64.5157C167.278 56.5639 126.316 59.775 124.072 62.6158C121.828 65.4566 108.614 128.221 108.614 128.221L167.96 124.61Z" fill="#231F20"/>
<path d="M108.586 128.537C108.545 128.537 108.504 128.527 108.467 128.51C108.429 128.492 108.396 128.466 108.368 128.434C108.34 128.398 108.32 128.356 108.31 128.311C108.3 128.265 108.3 128.218 108.311 128.173C108.849 125.605 121.587 65.2988 123.854 62.4337C125.097 60.8615 136.031 59.3986 147.733 59.2348C154.603 59.1376 171.257 59.4351 177.223 64.2851C181.373 67.66 181.11 78.8533 176.444 97.6221C173.009 111.504 168.275 124.585 168.229 124.713C168.21 124.768 168.175 124.816 168.131 124.85C168.086 124.885 168.032 124.905 167.977 124.907L108.603 128.549L108.586 128.537ZM149.897 59.8236H147.745C135.722 59.9935 125.274 61.5657 124.272 62.81C122.555 65.0013 113.532 106.108 108.929 127.9L167.742 124.306C168.95 120.913 186.062 72.2369 176.856 64.7525C172.981 61.6021 163.208 59.8236 149.897 59.8236Z" fill="#6F20F0"/>
<path d="M91.4107 79.5574L82.9148 109.793C82.9148 109.793 100.439 112.19 100.439 111.504C100.439 110.818 103.874 78.2342 103.874 78.2342L91.4107 79.5574Z" fill="white"/>
<path d="M99.5574 111.899C96.5976 111.899 88.199 110.818 82.8805 110.078C82.8394 110.072 82.8001 110.056 82.7651 110.033C82.7301 110.009 82.7002 109.978 82.6775 109.941C82.6547 109.905 82.6396 109.863 82.6332 109.82C82.6267 109.776 82.6291 109.732 82.64 109.689L91.1359 79.4543C91.1517 79.3959 91.1835 79.3439 91.2274 79.305C91.2713 79.266 91.3252 79.2419 91.3821 79.2357L103.851 77.9124C103.893 77.9083 103.936 77.9144 103.976 77.9301C104.015 77.9459 104.051 77.971 104.08 78.0035C104.111 78.0342 104.134 78.0723 104.148 78.1145C104.162 78.1568 104.166 78.202 104.16 78.2463C102.975 89.476 100.725 110.873 100.725 111.486C100.72 111.586 100.679 111.679 100.611 111.747C100.275 111.882 99.9149 111.934 99.5574 111.899ZM83.2641 109.538C89.3555 110.363 98.8132 111.51 100.141 111.31C100.359 108.688 103.147 82.2222 103.531 78.5741L91.6111 79.8427L83.2641 109.538Z" fill="#231F20"/>
<path d="M75.3063 72.0487C75.3807 72.1337 78.3978 71.2778 79.955 73.2627C81.5122 75.2477 79.4913 77.0201 74.5735 75.9943C69.6557 74.9684 75.3063 72.0487 75.3063 72.0487Z" fill="white"/>
<path d="M77.1669 76.5952C76.2765 76.5858 75.3889 76.4862 74.5163 76.2978C73.0965 76.0004 72.3637 75.5148 72.2778 74.8046C72.1118 73.4327 74.6651 72.0427 75.1804 71.7695C75.2398 71.7482 75.3042 71.7482 75.3636 71.7695H75.5525C76.354 71.6663 78.7928 71.3385 80.1783 73.0989C80.7966 73.8758 80.9283 74.671 80.5619 75.3387C80.0867 76.1339 78.8558 76.5952 77.1669 76.5952ZM75.3693 72.3462C74.2529 72.9532 72.7816 74.0215 72.8617 74.6953C72.8617 74.9199 73.1594 75.3448 74.6308 75.6544C77.957 76.3464 79.6287 75.7029 80.0523 74.9442C80.1535 74.6866 80.1765 74.4021 80.118 74.1301C80.0595 73.8581 79.9225 73.6122 79.726 73.4266C78.5467 71.9334 76.4227 72.2126 75.6269 72.3219C75.5181 72.3462 75.438 72.3462 75.3693 72.3462Z" fill="#231F20"/>
<path d="M67.7436 65.7055C67.7436 65.7055 67.1253 64.9528 67.5146 64.4247C67.6022 64.3175 67.7126 64.2339 67.8367 64.181C67.9608 64.1281 68.095 64.1073 68.2282 64.1203C68.3614 64.1334 68.4898 64.1799 68.6026 64.2561C68.7155 64.3322 68.8096 64.4358 68.8771 64.5582C68.8771 64.5582 67.9039 64.9285 67.7436 65.7055Z" fill="white"/>
<path d="M67.7436 66.0151C67.7016 66.0155 67.66 66.0066 67.6216 65.9888C67.5831 65.971 67.5486 65.9448 67.5203 65.9119C67.2341 65.5598 66.8562 64.8071 67.2856 64.2365C67.3816 64.1028 67.5054 63.9943 67.6474 63.9195C67.7894 63.8448 67.9457 63.8058 68.1043 63.8055C68.2994 63.8091 68.4911 63.8608 68.664 63.9567C68.8369 64.0526 68.9864 64.19 69.1004 64.3579C69.1318 64.3965 69.1535 64.4429 69.1635 64.4928C69.1735 64.5427 69.1715 64.5944 69.1577 64.6432C69.1456 64.6917 69.1227 64.7364 69.0908 64.7734C69.0589 64.8104 69.019 64.8386 68.9745 64.8557C68.7455 64.9407 68.1329 65.2806 68.0298 65.7723C68.0188 65.8287 67.9932 65.8808 67.9557 65.9226C67.9183 65.9644 67.8706 65.9944 67.818 66.009L67.7436 66.0151ZM68.1157 64.4308C68.0462 64.4319 67.9778 64.4493 67.9154 64.4818C67.8531 64.5144 67.7983 64.5612 67.755 64.6189C67.7224 64.6855 67.7054 64.7594 67.7054 64.8344C67.7054 64.9094 67.7224 64.9833 67.755 65.0499C67.9275 64.8255 68.137 64.6363 68.3733 64.4915C68.2942 64.4547 68.207 64.4421 68.1214 64.455L68.1157 64.4308Z" fill="#231F20"/>
<path d="M69.0947 64.5279C68.7541 64.5572 68.4323 64.7054 68.1796 64.9492C67.9268 65.193 67.7574 65.5187 67.6978 65.8754L79.9779 82.8171C80.0537 82.0052 80.3843 81.2438 80.9169 80.655C81.4494 80.0661 82.153 79.6839 82.9148 79.5696L69.0947 64.5279Z" fill="white"/>
<path d="M79.9722 83.1267C79.9278 83.1262 79.8841 83.115 79.8445 83.094C79.8048 83.073 79.7702 83.0426 79.7432 83.0053L67.4631 66.0636C67.4353 66.0253 67.4163 65.9807 67.4073 65.9334C67.3984 65.886 67.3998 65.8371 67.4115 65.7905C67.4924 65.3693 67.7004 64.9874 68.004 64.7027C68.3077 64.418 68.6905 64.2458 69.0947 64.2122C69.1343 64.2127 69.1735 64.2215 69.2098 64.2381C69.2462 64.2548 69.2791 64.279 69.3065 64.3094L83.1267 79.3511C83.1651 79.3914 83.1919 79.4425 83.2041 79.4984C83.2162 79.5542 83.2132 79.6126 83.1954 79.6667C83.1793 79.721 83.1494 79.7696 83.109 79.8071C83.0686 79.8445 83.0193 79.8695 82.9664 79.8792C82.2685 79.9803 81.6231 80.3275 81.134 80.8648C80.6449 81.4022 80.3405 82.0984 80.2699 82.8414C80.2651 82.9044 80.2423 82.9643 80.2044 83.0132C80.1665 83.062 80.1155 83.0974 80.0581 83.1145L79.9722 83.1267ZM68.0241 65.8147L79.8233 82.0887C79.9895 81.4482 80.3078 80.8635 80.7478 80.3906C81.1878 79.9177 81.7348 79.5723 82.3366 79.3875L68.9859 64.8557C68.7576 64.9055 68.5468 65.0215 68.377 65.1909C68.2072 65.3602 68.085 65.5762 68.0241 65.8147Z" fill="#231F20"/>
<path d="M79.9779 82.8171L84.1686 85.1237L84.6896 84.6078L82.9148 79.5696C82.9148 79.5696 79.6516 79.2236 79.9779 82.8171Z" fill="white"/>
<path d="M84.1686 85.4333C84.1206 85.4341 84.0732 85.4215 84.0312 85.3969L79.8405 83.0902C79.796 83.0667 79.7579 83.0314 79.7299 82.9879C79.7018 82.9443 79.6847 82.8939 79.6802 82.8414C79.6005 82.3584 79.6256 81.8625 79.7536 81.3913C79.8815 80.9201 80.109 80.486 80.4187 80.122C80.7642 79.8069 81.1654 79.568 81.5988 79.419C82.0323 79.2699 82.4894 79.2138 82.9435 79.2539C82.9996 79.2595 83.053 79.2819 83.0976 79.3184C83.1422 79.355 83.1761 79.4042 83.1954 79.4603L84.9644 84.4985C84.9857 84.5565 84.9899 84.62 84.9767 84.6806C84.9634 84.7413 84.9332 84.7963 84.89 84.8384L84.369 85.3544C84.3134 85.4056 84.2422 85.4336 84.1686 85.4333ZM80.2584 82.6168L84.1171 84.7413L84.3461 84.5228L82.7087 79.8731C82.024 79.8524 81.356 80.0986 80.8309 80.5651C80.601 80.8426 80.4307 81.1699 80.3319 81.5242C80.233 81.8784 80.208 82.2512 80.2584 82.6168Z" fill="#231F20"/>
<path d="M84.1686 85.1237L84.9701 86.0342L85.348 85.579L84.6896 84.6078L84.1686 85.1237Z" fill="white"/>
<path d="M84.9701 86.3499C84.9298 86.3502 84.89 86.3411 84.8534 86.3233C84.8168 86.3054 84.7843 86.2793 84.7583 86.2467L83.9511 85.3362C83.899 85.2744 83.8704 85.1944 83.8709 85.1116C83.8753 85.0281 83.9102 84.9497 83.9682 84.893L84.4892 84.3771C84.5202 84.3473 84.5568 84.3248 84.5965 84.311C84.6362 84.2972 84.6783 84.2925 84.7198 84.2971C84.7614 84.3017 84.8017 84.3155 84.8379 84.3376C84.8741 84.3598 84.9055 84.3898 84.93 84.4256L85.5884 85.3969C85.6302 85.4519 85.653 85.5204 85.653 85.5911C85.653 85.6618 85.6302 85.7303 85.5884 85.7854L85.2106 86.2406C85.1842 86.2748 85.151 86.3023 85.1134 86.3212C85.0758 86.3401 85.0347 86.3499 84.993 86.3499H84.9701ZM84.5865 85.1359L84.9644 85.5668L84.6381 85.0873L84.5865 85.1359Z" fill="#231F20"/>
<path d="M76.0849 84.1464C76.7605 82.6957 78.4551 79.6181 78.8444 78.2827C79.9207 74.6407 73.6174 71.2293 71.5793 71.2293C69.5412 71.2293 65.2818 78.7805 65.2818 82.8171C65.2818 86.8537 79.394 117.763 79.394 117.763L92.9336 111.195L76.0849 84.1464Z" fill="white"/>
<path d="M79.4111 118.078C79.3561 118.078 79.3021 118.062 79.2555 118.031C79.2089 117.999 79.1715 117.955 79.1478 117.902C78.5753 116.64 65.0013 86.8719 65.0013 82.8171C65.0013 78.7623 69.3065 70.9136 71.5793 70.9136C73.148 70.9136 76.7948 72.6861 78.4493 75.0413C78.8156 75.4941 79.0714 76.0353 79.1941 76.6174C79.3169 77.1996 79.303 77.8048 79.1535 78.3798C78.6077 79.8111 77.9687 81.2004 77.2414 82.5379C76.9379 83.1449 76.6689 83.6912 76.4513 84.1221L93.2198 111.013C93.2432 111.051 93.2589 111.094 93.2658 111.139C93.2727 111.184 93.2707 111.23 93.2599 111.274C93.2476 111.316 93.227 111.356 93.1993 111.389C93.1717 111.422 93.1377 111.449 93.0996 111.468L79.5543 118.048C79.5113 118.075 79.4607 118.086 79.4111 118.078ZM71.5793 71.5388C69.7874 71.5388 65.5967 78.823 65.5967 82.8171C65.5967 86.532 78.1516 114.266 79.5485 117.356L92.5157 111.055L75.8387 84.3467C75.8137 84.2984 75.8005 84.2441 75.8005 84.1889C75.8005 84.1337 75.8137 84.0795 75.8387 84.0311C76.0563 83.5698 76.3712 82.9445 76.7147 82.2647C77.4227 80.9616 78.0462 79.6089 78.581 78.2159C78.7018 77.7348 78.7091 77.2296 78.6023 76.7448C78.4955 76.2599 78.2778 75.8104 77.9684 75.4358C76.3712 73.1353 72.8961 71.5388 71.5793 71.5388Z" fill="#231F20"/>
<path d="M148.123 90.2651L164.811 85.755C164.238 84.8991 157.506 62.2394 150.407 58.5306C144.195 54.1601 129.465 51.2465 116.452 52.2359C116.452 52.2359 113.017 52.1024 106.994 54.6336C92.3267 60.813 89.4986 82.3315 89.4986 82.3315L100.949 86.5259C100.949 86.5259 98.7617 114.357 96.6949 128.907C96.6949 128.907 122.011 134.158 158.868 127.693C158.897 127.681 148.191 94.3806 148.123 90.2651Z" fill="#0EB92A"/>
<path d="M146.749 59.1558C144.539 61.5839 142.816 64.4975 140.377 66.786C135.121 71.7149 128.245 75.6179 121.038 75.1445C112.542 74.586 105.197 68.431 103.353 59.4654C102.208 53.8445 103.399 48.6242 107.498 44.6544C110.332 41.9107 113.962 40.2353 117.671 39.1913C127.524 36.393 138.579 37.8801 146.989 44.0109C148.363 44.9077 149.523 46.1293 150.378 47.5802C152.479 51.6168 150.063 55.7687 147.338 58.5428C147.155 58.7309 146.96 58.9434 146.749 59.1558Z" fill="#0EB92A"/>
<path d="M117.763 65.5173C117.677 65.5173 116.097 67.5569 116.017 67.5872C116.916 71.1807 117.866 75.8608 121.702 76.3221C129.482 77.2629 130.661 66.2639 132.127 61.074C126.74 62.6765 122.938 63.3199 117.763 65.5173Z" fill="#231F20"/>
<path d="M122.612 76.6863C122.298 76.6837 121.985 76.6634 121.673 76.6256C117.843 76.1643 116.761 71.7695 115.885 68.2549L115.736 67.6479C115.722 67.5883 115.726 67.5256 115.746 67.4682C115.767 67.4108 115.803 67.3613 115.851 67.3262C115.942 67.2351 116.36 66.7192 116.664 66.3428C117.551 65.2624 117.563 65.2563 117.654 65.2138C120.823 63.9149 124.075 62.858 127.387 62.0513C128.847 61.6628 130.352 61.2622 132.024 60.7644C132.073 60.7499 132.125 60.7495 132.174 60.7634C132.224 60.7773 132.269 60.8049 132.304 60.8433C132.339 60.8827 132.363 60.9306 132.375 60.9826C132.387 61.0347 132.386 61.0891 132.373 61.1408C132.156 61.9117 131.944 62.8222 131.715 63.7873C130.53 68.9833 128.715 76.6802 122.612 76.6863ZM116.314 67.6843L116.418 68.1032C117.293 71.6238 118.278 75.6119 121.719 75.9943C128.091 76.7652 129.871 69.1715 131.177 63.6234C131.354 62.8647 131.526 62.1363 131.698 61.4807C130.215 61.9117 128.835 62.2759 127.535 62.6279C124.254 63.4176 121.032 64.4604 117.895 65.748C117.78 65.8694 117.379 66.355 117.082 66.7253C116.681 67.2716 116.458 67.5386 116.332 67.6843H116.314Z" fill="#231F20"/>
<path d="M125.297 23.1784C124.152 23.1298 123.419 23.6579 122.435 24.0343C120.517 24.7505 119.624 23.0509 117.975 22.1464C115.379 20.7155 112.396 20.2813 109.532 20.9175C106.669 21.5538 104.101 23.2212 102.265 25.6368C101.123 27.0713 100.383 28.8168 100.13 30.6749C99.8895 32.7752 100.445 34.924 100.101 37C99.8913 38.1922 99.3986 39.3082 98.6694 40.2427C97.9402 41.1773 96.9987 41.8996 95.9335 42.3417C97.7663 42.4917 99.6098 42.3069 101.384 41.7954C100.874 42.4379 100.24 42.9572 99.5252 43.3185C98.8102 43.6797 98.0306 43.8744 97.2388 43.8895C99.0645 45.378 101.308 46.1751 103.611 46.1537L99.5746 47.1553C103.01 49.4922 107.195 50.1903 111.242 49.9961C119.303 49.5529 132.802 46.0566 132.568 34.9847C132.436 30.7417 130.238 23.4212 125.297 23.1784Z" fill="white"/>
<path d="M109.857 50.3542C106.771 50.3542 102.821 49.7472 99.3971 47.4284C99.3502 47.3952 99.3133 47.3483 99.2909 47.2934C99.2686 47.2385 99.2617 47.1778 99.2712 47.1188C99.2829 47.0611 99.3094 47.0079 99.3478 46.9651C99.3862 46.9222 99.4349 46.8914 99.4887 46.876L101.733 46.3237C100.025 46.0151 98.4132 45.2691 97.0384 44.1506C96.9904 44.1123 96.9548 44.0591 96.9369 43.9983C96.919 43.9375 96.9196 43.8722 96.9386 43.8118C96.9576 43.7513 96.9941 43.6988 97.0428 43.6615C97.0915 43.6243 97.1501 43.6043 97.2102 43.6043C98.3857 43.5838 99.5207 43.1456 100.433 42.3599C98.9393 42.6884 97.4088 42.7906 95.8877 42.6634C95.8233 42.6572 95.7627 42.628 95.7159 42.5806C95.6691 42.5332 95.6389 42.4703 95.6301 42.4024C95.6196 42.3336 95.6322 42.2632 95.6657 42.2033C95.6991 42.1434 95.7514 42.0978 95.8133 42.0746C96.8367 41.6571 97.7422 40.9688 98.4437 40.0752C99.1452 39.1816 99.6193 38.1125 99.8208 36.9696C99.9585 35.8785 99.97 34.7737 99.8551 33.6796C99.7656 32.6702 99.7656 31.6541 99.8551 30.6446C100.116 28.7288 100.877 26.9287 102.054 25.4486C103.931 22.9785 106.557 21.2738 109.485 20.6243C112.414 19.9747 115.464 20.4204 118.118 21.8854C118.606 22.1678 119.069 22.4948 119.503 22.8627C120.431 23.6093 121.164 24.1981 122.366 23.755C122.623 23.6579 122.864 23.5486 123.099 23.4455C123.797 23.0692 124.571 22.8757 125.354 22.8809C130.312 23.1116 132.797 30.2379 132.877 34.9847C132.98 40.0168 130.387 43.9806 125.165 46.7546C119.944 49.5287 113.715 50.1721 111.282 50.3056C110.801 50.3421 110.338 50.3542 109.857 50.3542ZM100.296 47.3191C103.994 49.5954 108.237 49.8989 111.208 49.7472C113.589 49.6136 119.681 49.0127 124.862 46.2569C129.871 43.5982 132.356 39.8287 132.259 35.0454C132.161 30.5293 129.877 23.749 125.286 23.5122C124.587 23.5174 123.899 23.694 123.276 24.0282C123.03 24.1374 122.778 24.2528 122.509 24.3499C121.026 24.9023 120.099 24.1557 119.12 23.3665C118.713 23.021 118.278 22.7142 117.82 22.45C115.284 21.0472 112.368 20.6199 109.569 21.2408C106.769 21.8617 104.259 23.4925 102.466 25.8553C101.361 27.2379 100.641 28.9194 100.388 30.7114C100.302 31.6784 100.302 32.6519 100.388 33.6189C100.504 34.7619 100.489 35.9156 100.342 37.0546C100.161 38.0944 99.7726 39.0813 99.2029 39.9491C98.6332 40.817 97.8953 41.5458 97.0384 42.0867C98.466 42.0848 99.8869 41.8806 101.263 41.4797C101.323 41.4615 101.386 41.4641 101.444 41.487C101.501 41.51 101.551 41.5521 101.584 41.6072C101.619 41.6595 101.638 41.7221 101.638 41.7863C101.638 41.8504 101.619 41.913 101.584 41.9653C100.678 43.1083 99.4138 43.8669 98.0231 44.102C99.6789 45.2467 101.617 45.8465 103.594 45.8259C103.664 45.824 103.733 45.8504 103.786 45.9C103.839 45.9495 103.873 46.0184 103.88 46.093C103.889 46.1673 103.872 46.2425 103.831 46.3041C103.791 46.3658 103.731 46.4095 103.662 46.4268L100.296 47.3191Z" fill="#231F20"/>
<path d="M115.444 57.1345L116.017 67.5872C116.017 67.5872 120.522 73.0503 126.322 69.6935C132.121 66.3368 131.898 61.0133 131.898 61.0133L128.091 41.3887C128.091 41.3887 122.83 40.1018 121.49 29.1149C117.002 32.8828 111.638 35.2965 105.964 36.1016C105.964 36.1016 106.067 48.3936 108.111 53.28C110.154 58.1664 115.444 57.1345 115.444 57.1345Z" fill="white"/>
<path d="M122.515 71.0836C118.576 71.0836 115.834 67.8361 115.799 67.7875C115.757 67.7373 115.732 67.6728 115.731 67.6054L115.158 57.4744C113.95 57.6019 109.645 57.7233 107.83 53.3832C105.786 48.5271 105.666 36.5872 105.66 36.0834C105.661 36.0101 105.686 35.9394 105.731 35.8838C105.776 35.8282 105.838 35.7914 105.906 35.7799C111.52 34.9683 116.829 32.5838 121.284 28.8721C121.323 28.8356 121.371 28.8112 121.423 28.8016C121.474 28.792 121.527 28.7975 121.576 28.8175C121.624 28.8372 121.666 28.8701 121.698 28.9127C121.73 28.9554 121.751 29.0063 121.759 29.0603C122.435 34.6205 124.141 37.5888 125.452 39.1063C126.16 40.0128 127.091 40.6935 128.142 41.073C128.195 41.0876 128.243 41.1176 128.28 41.1594C128.317 41.2012 128.343 41.2533 128.354 41.3098L132.167 60.9526C132.167 61.0558 132.339 66.5492 126.442 69.9606C125.244 70.6818 123.892 71.0682 122.515 71.0836ZM116.292 67.4415C116.864 68.1032 120.963 72.4372 126.19 69.4082C131.755 66.1789 131.617 61.0497 131.617 61.0011L127.845 41.5768C126.894 41.243 122.589 39.2277 121.278 29.637C116.877 33.1616 111.712 35.4576 106.256 36.3141C106.256 38.1351 106.542 48.7335 108.368 53.11C110.298 57.7112 115.187 56.8431 115.393 56.8067C115.432 56.7985 115.473 56.7991 115.513 56.8085C115.552 56.818 115.589 56.8359 115.622 56.8613C115.653 56.8893 115.679 56.9235 115.697 56.9621C115.716 57.0006 115.727 57.0427 115.731 57.0859L116.292 67.4415Z" fill="#231F20"/>
<path d="M125.944 46.8882C127.289 47.103 128.66 46.7451 129.757 45.8927C130.498 45.2706 131.075 44.4571 131.434 43.5302C131.793 42.6033 131.921 41.5941 131.806 40.5995C131.771 39.8562 131.575 39.1314 131.234 38.4811C131.067 38.1558 130.836 37.8726 130.556 37.6505C130.276 37.4285 129.955 37.2728 129.614 37.1942C128.768 37.1385 127.929 37.3749 127.221 37.868C126.11 38.475 126.076 39.1488 125.469 40.1443C125.537 40.0532 125.589 39.7983 125.658 39.7072" fill="white"/>
<path d="M126.711 47.2584C126.439 47.2573 126.167 47.235 125.898 47.1917C125.822 47.1782 125.755 47.1338 125.71 47.0679C125.665 47.002 125.646 46.92 125.658 46.8396C125.663 46.8003 125.676 46.7626 125.696 46.7287C125.715 46.6948 125.741 46.6654 125.771 46.6422C125.802 46.619 125.836 46.6025 125.873 46.5936C125.909 46.5848 125.947 46.5838 125.984 46.5907C127.252 46.7886 128.543 46.446 129.574 45.6377C130.275 45.046 130.821 44.2728 131.159 43.3925C131.497 42.5123 131.615 41.5546 131.503 40.6117C131.48 39.9153 131.306 39.2339 130.993 38.6207C130.846 38.3365 130.643 38.0889 130.398 37.8943C130.153 37.6996 129.872 37.5624 129.574 37.4917C128.864 37.3581 128.154 37.7041 127.364 38.1351C126.821 38.4151 126.396 38.9 126.173 39.4948C126.053 39.7255 125.921 39.9865 125.744 40.2718C125.732 40.2964 125.716 40.3189 125.698 40.3385C125.652 40.3989 125.585 40.4378 125.512 40.4469C125.44 40.4559 125.366 40.4345 125.308 40.3871C125.248 40.3418 125.207 40.273 125.194 40.1957C125.181 40.1184 125.197 40.0388 125.24 39.9743C125.24 39.9743 125.24 39.8954 125.28 39.8529C125.313 39.743 125.362 39.6388 125.423 39.5433C125.453 39.5066 125.49 39.4775 125.532 39.4584L125.641 39.2398C125.923 38.5357 126.435 37.9627 127.083 37.6252C127.759 37.2549 128.692 36.745 129.648 36.9211C130.037 37.0029 130.404 37.1734 130.724 37.4207C131.045 37.6681 131.31 37.9864 131.503 38.3536C131.854 39.0479 132.05 39.8184 132.075 40.6056C132.196 41.6506 132.061 42.711 131.682 43.6841C131.302 44.6572 130.693 45.51 129.911 46.1598C128.982 46.8772 127.861 47.2621 126.711 47.2584Z" fill="#231F20"/>
<path d="M115.742 62.634C116.869 62.548 117.96 62.1713 118.919 61.5365C119.878 60.9018 120.676 60.0283 121.244 58.992C123.265 55.4167 122.457 53.1282 122.457 53.1282C122.457 53.1282 119.732 56.8128 115.444 57.1102L115.742 62.634Z" fill="#231F20"/>
<path d="M115.742 62.9314C115.67 62.9315 115.6 62.9018 115.548 62.8487C115.495 62.7955 115.464 62.7229 115.461 62.6461L115.158 57.1831C115.156 57.1432 115.161 57.1032 115.173 57.0654C115.185 57.0277 115.205 56.9928 115.23 56.963C115.255 56.9331 115.285 56.9087 115.319 56.8913C115.353 56.8738 115.389 56.8637 115.427 56.8613C119.532 56.5821 122.206 53.0372 122.234 53.0008C122.265 52.9578 122.307 52.9245 122.354 52.9043C122.401 52.884 122.453 52.8775 122.503 52.8854C122.553 52.8945 122.6 52.9172 122.639 52.9512C122.678 52.9853 122.708 53.0295 122.726 53.0797C122.761 53.1768 123.557 55.5441 121.484 59.2044C120.894 60.281 120.063 61.1869 119.065 61.8423C118.066 62.4976 116.931 62.8821 115.759 62.9618L115.742 62.9314ZM115.742 57.4076L116.011 62.3062C117.034 62.1726 118.014 61.7924 118.876 61.1947C119.739 60.5971 120.46 59.7978 120.986 58.8584C122.354 56.4304 122.389 54.6579 122.286 53.8081C120.571 55.7864 118.255 57.0609 115.742 57.4076Z" fill="#231F20"/>
<path d="M114.689 40.5206C114.689 40.5206 112.542 46.5179 113.515 47.2342C114.488 47.9504 116.543 46.8093 116.543 46.8093" fill="white"/>
<path d="M114.362 47.7744C114.004 47.7918 113.65 47.6899 113.349 47.483C112.273 46.6939 113.921 41.8743 114.414 40.4114C114.441 40.3368 114.494 40.2766 114.563 40.2436C114.631 40.2107 114.71 40.2077 114.78 40.2353C114.816 40.2495 114.848 40.2709 114.876 40.2985C114.903 40.326 114.926 40.3591 114.941 40.3958C114.956 40.4325 114.965 40.4721 114.966 40.5123C114.967 40.5525 114.96 40.5925 114.946 40.6299C113.95 43.4161 113.229 46.6393 113.675 46.9792C114.357 47.477 115.879 46.8335 116.406 46.5422C116.474 46.5054 116.552 46.4982 116.625 46.522C116.698 46.5458 116.759 46.5988 116.795 46.6696C116.829 46.7413 116.835 46.8243 116.812 46.9005C116.788 46.9768 116.737 47.04 116.669 47.0763C115.956 47.4813 115.17 47.7193 114.362 47.7744Z" fill="#231F20"/>
<path d="M118.911 40.3689C119.348 40.2194 119.54 39.5681 119.34 38.9141C119.141 38.2602 118.626 37.8512 118.19 38.0007C117.753 38.1502 117.561 38.8015 117.761 39.4555C117.96 40.1094 118.475 40.5184 118.911 40.3689Z" fill="#231F20"/>
<path d="M110.902 42.3547C111.36 42.348 111.725 41.7856 111.716 41.0984C111.707 40.4112 111.328 39.8595 110.87 39.8662C110.412 39.8728 110.047 40.4352 110.056 41.1224C110.065 41.8096 110.444 42.3613 110.902 42.3547Z" fill="#231F20"/>
<path d="M115.37 54.9371C114.82 54.9523 114.28 54.7847 113.824 54.4576C112.021 53.0615 111.889 49.9778 111.883 49.8443C111.882 49.7726 111.904 49.7025 111.945 49.646C111.987 49.5895 112.046 49.5502 112.112 49.5347C119.52 47.8169 119.601 47.8776 119.732 47.9808C119.765 48.0069 119.792 48.0397 119.813 48.0773C119.834 48.1148 119.847 48.1563 119.853 48.1993C119.967 49.4231 119.808 50.6584 119.389 51.8049C119.137 52.5079 118.737 53.1408 118.22 53.6561C117.704 54.1713 117.083 54.5554 116.406 54.7793C116.069 54.8825 115.721 54.9357 115.37 54.9371ZM112.479 50.081C112.547 50.8155 112.857 52.9643 114.15 53.9598C114.459 54.1603 114.805 54.2861 115.164 54.328C115.523 54.37 115.887 54.3272 116.229 54.2026C116.825 54.0057 117.372 53.668 117.828 53.2149C118.285 52.7618 118.638 52.205 118.862 51.5864C119.216 50.6211 119.365 49.5847 119.297 48.5514C118.313 48.7395 114.837 49.5287 112.479 50.075V50.081Z" fill="#231F20"/>
<path d="M119.125 51.7078C118.026 54.5244 115.273 55.1981 113.973 54.2209C114.265 53.1464 114.797 52.0295 115.788 51.6228C116.875 51.2298 118.058 51.2599 119.125 51.7078Z" fill="#231F20"/>
<path d="M115.37 54.9311C114.821 54.9473 114.281 54.7818 113.824 54.4576C113.777 54.4211 113.742 54.3699 113.723 54.3112C113.705 54.2524 113.704 54.189 113.721 54.1298C114.11 52.6487 114.78 51.7018 115.702 51.3315C116.848 50.9185 118.094 50.9465 119.223 51.4104C119.259 51.4246 119.293 51.4464 119.321 51.4745C119.35 51.5027 119.373 51.5366 119.389 51.5743C119.417 51.6503 119.417 51.735 119.389 51.811C119.135 52.5123 118.735 53.1437 118.218 53.6577C117.702 54.1718 117.082 54.5552 116.406 54.7793C116.069 54.8803 115.72 54.9313 115.37 54.9311ZM114.328 54.0752C114.923 54.3734 115.604 54.4168 116.229 54.1966C116.777 54.0188 117.284 53.7204 117.716 53.3208C118.148 52.9212 118.496 52.4295 118.736 51.8778C117.818 51.5542 116.826 51.5542 115.908 51.8778C115.204 52.1813 114.689 52.9219 114.328 54.0752Z" fill="#231F20"/>
<path d="M105.695 45.3646C105.303 45.3644 104.923 45.2223 104.618 44.9617C104.313 44.7012 104.101 44.3379 104.017 43.932L103.416 41.0366C103.319 40.5649 103.403 40.0717 103.648 39.6653C103.894 39.259 104.282 38.9727 104.727 38.8696L111.11 37.3824C111.331 37.3306 111.559 37.3254 111.782 37.3673C112.004 37.4091 112.217 37.4971 112.407 37.6263C112.598 37.7554 112.762 37.9231 112.891 38.1198C113.021 38.3165 113.112 38.5383 113.16 38.7724L113.733 41.6679C113.825 42.1335 113.742 42.6191 113.502 43.0207C113.261 43.4223 112.881 43.708 112.444 43.8167L106.061 45.2978C105.942 45.3351 105.819 45.3575 105.695 45.3646ZM111.483 37.9712C111.401 37.9622 111.318 37.9622 111.236 37.9712L104.859 39.4523C104.568 39.5235 104.314 39.7125 104.153 39.979C103.991 40.2455 103.934 40.5684 103.994 40.8788L104.595 43.8167C104.664 44.123 104.842 44.3892 105.092 44.559C105.342 44.7289 105.644 44.7892 105.935 44.7272L112.318 43.2097C112.607 43.1372 112.858 42.9485 113.019 42.6835C113.179 42.4185 113.236 42.0979 113.177 41.7893L112.605 38.8938C112.547 38.6293 112.408 38.3928 112.208 38.2223C112.009 38.0517 111.762 37.9569 111.505 37.953L111.483 37.9712Z" fill="#231F20"/>
<path d="M117.07 42.7241C116.741 42.7232 116.419 42.6221 116.143 42.4327C115.76 42.1725 115.49 41.7622 115.393 41.2915L114.82 38.3961C114.722 37.9247 114.804 37.4313 115.049 37.0243C115.171 36.8217 115.329 36.6466 115.515 36.509C115.7 36.3715 115.91 36.2743 116.131 36.223L122.509 34.7419C122.73 34.6901 122.958 34.6849 123.18 34.7268C123.403 34.7686 123.615 34.8567 123.806 34.9858C123.996 35.1149 124.161 35.2827 124.29 35.4793C124.419 35.676 124.51 35.8978 124.558 36.132L125.131 39.0274C125.231 39.4957 125.152 39.9868 124.911 40.3937C124.671 40.8007 124.289 41.0906 123.849 41.2005L117.471 42.6816C117.339 42.7093 117.205 42.7235 117.07 42.7241ZM122.858 35.3186C122.775 35.3197 122.693 35.3298 122.612 35.3489L116.234 36.8361C116.089 36.8684 115.951 36.9313 115.83 37.0209C115.708 37.1106 115.604 37.2252 115.524 37.3581C115.363 37.6265 115.308 37.9513 115.37 38.2626L115.971 41.158C116.039 41.4643 116.217 41.7305 116.467 41.9003C116.717 42.0702 117.02 42.1305 117.311 42.0685L123.694 40.5874C123.986 40.5184 124.241 40.331 124.404 40.0654C124.563 39.7962 124.617 39.4715 124.553 39.1609L123.98 36.2655C123.923 35.9958 123.78 35.7549 123.576 35.5827C123.372 35.4105 123.119 35.3173 122.858 35.3186Z" fill="#231F20"/>
<path d="M112.868 39.1549C112.816 39.1561 112.764 39.1413 112.719 39.1124C112.652 39.0705 112.604 39.0027 112.583 38.9234C112.563 38.844 112.573 38.7594 112.61 38.6875C112.879 38.1958 113.755 37.4249 115.192 38.038C115.268 38.0686 115.33 38.1299 115.363 38.2084C115.396 38.287 115.399 38.3763 115.37 38.4568C115.341 38.5373 115.283 38.6023 115.209 38.6376C115.135 38.6729 115.051 38.6756 114.975 38.645C113.692 38.0987 113.177 38.9303 113.126 39.0274C113.096 39.0693 113.057 39.1029 113.012 39.1251C112.967 39.1473 112.918 39.1575 112.868 39.1549Z" fill="#231F20"/>
<path d="M55.8356 119.96H173.542L192.428 156.532H36.9488L55.8356 119.96Z" fill="white"/>
<path d="M192.425 156.787H36.9454C36.8961 156.787 36.8477 156.773 36.8046 156.748C36.7616 156.723 36.7253 156.686 36.6992 156.642C36.6752 156.595 36.6626 156.543 36.6626 156.49C36.6626 156.437 36.6752 156.385 36.6992 156.338L55.5917 119.766C55.616 119.717 55.6523 119.677 55.6967 119.649C55.7412 119.621 55.792 119.607 55.8436 119.608H173.532C173.584 119.607 173.635 119.621 173.679 119.649C173.724 119.677 173.76 119.717 173.784 119.766L192.677 156.338C192.701 156.385 192.713 156.437 192.713 156.49C192.713 156.543 192.701 156.595 192.677 156.642C192.65 156.687 192.613 156.724 192.569 156.749C192.525 156.775 192.475 156.788 192.425 156.787ZM37.432 156.18H191.938L173.366 120.215H56.0039L37.432 156.18Z" fill="#262728"/>
<path d="M57.6619 96.3655L57.9138 95.2122C58.4863 94.0589 59.1217 93.2819 60.5988 93.2819H116.629C117.307 93.2831 117.966 93.5167 118.507 93.9478C119.049 94.3789 119.445 94.9843 119.635 95.6735L128.743 128.853C128.979 129.564 128.949 130.344 128.661 131.033C128.372 131.722 127.847 132.269 127.192 132.562L126.202 132.81L57.6619 96.3655Z" fill="white"/>
<path d="M126.202 133.114C126.158 133.112 126.115 133.102 126.076 133.084L57.5359 96.6266C57.4781 96.5966 57.4317 96.5465 57.4046 96.4846C57.3775 96.4227 57.3713 96.3528 57.3871 96.2866L57.639 95.1333C57.6365 95.1071 57.6365 95.0806 57.639 95.0544C58.2115 93.9557 58.8698 92.9663 60.5759 92.9663H116.606C117.345 92.9694 118.063 93.2251 118.654 93.6953C119.245 94.1655 119.678 94.8252 119.887 95.5764L129.001 128.798C129.257 129.582 129.222 130.44 128.903 131.198C128.584 131.955 128.005 132.556 127.284 132.877L126.259 133.138L126.202 133.114ZM58.0111 96.2016L126.259 132.489L127.146 132.27C128.526 131.7 128.812 130.14 128.486 128.938L119.377 95.7585C119.203 95.1333 118.843 94.5844 118.351 94.193C117.859 93.8016 117.261 93.5886 116.647 93.5854H60.5988C59.3336 93.5854 58.7897 94.1924 58.1828 95.3215L58.0111 96.2016Z" fill="#231F20"/>
<path d="M126.202 132.81H69.026C68.6375 132.806 68.2607 132.669 67.9514 132.42C67.6421 132.17 67.4167 131.822 67.3085 131.426L57.6848 96.3656C57.6485 96.2311 57.6421 96.0894 57.6661 95.9519C57.6902 95.8143 57.744 95.6846 57.8233 95.5728C57.9027 95.461 58.0054 95.3703 58.1234 95.3077C58.2414 95.2451 58.3715 95.2125 58.5034 95.2122H117.208L127.152 131.469C127.196 131.625 127.204 131.79 127.177 131.951C127.15 132.111 127.088 132.263 126.995 132.393C126.903 132.524 126.783 132.629 126.645 132.702C126.507 132.774 126.355 132.811 126.202 132.81Z" fill="#8D21FA"/>
<path d="M126.202 133.114H69.026C68.5723 133.112 68.1314 132.955 67.7685 132.666C67.4055 132.377 67.1399 131.973 67.0108 131.511L57.3871 96.4505C57.3406 96.2713 57.3336 96.083 57.3665 95.9004C57.3995 95.7178 57.4716 95.5457 57.5773 95.3973C57.6829 95.2489 57.8193 95.1282 57.9759 95.0446C58.1326 94.9609 58.3052 94.9165 58.4805 94.9148H117.208C117.268 94.9137 117.328 94.934 117.376 94.9724C117.425 95.0109 117.46 95.0653 117.477 95.1272L127.427 131.384C127.482 131.585 127.492 131.798 127.456 132.004C127.42 132.211 127.34 132.405 127.221 132.573C127.102 132.741 126.948 132.877 126.772 132.971C126.595 133.065 126.399 133.114 126.202 133.114ZM58.4805 95.5157C58.3934 95.5172 58.3078 95.5397 58.2301 95.5815C58.1524 95.6234 58.0848 95.6835 58.0323 95.7572C57.9799 95.831 57.944 95.9165 57.9274 96.0072C57.9108 96.0979 57.914 96.1914 57.9367 96.2806L67.5547 131.341C67.6493 131.677 67.8436 131.972 68.1085 132.182C68.3735 132.392 68.6952 132.506 69.026 132.507H126.202C126.312 132.508 126.421 132.481 126.521 132.43C126.62 132.378 126.707 132.303 126.774 132.209C126.839 132.117 126.882 132.009 126.901 131.895C126.92 131.781 126.914 131.665 126.883 131.554L116.979 95.5157H58.4805Z" fill="#231F20"/>
<path d="M116.612 117.872L113.137 133.539C112.953 134.377 112.507 135.125 111.87 135.66C111.234 136.194 110.445 136.485 109.633 136.483H73.4686C72.9257 136.483 72.39 136.352 71.9014 136.101C71.4128 135.851 70.9839 135.486 70.647 135.035C70.31 134.583 70.0736 134.057 69.9555 133.496C69.8374 132.934 69.8406 132.351 69.9649 131.791L73.0278 117.872H70.0336L67.1024 131.074C66.8811 132.091 66.879 133.147 67.0961 134.165C67.3132 135.183 67.7439 136.135 68.3563 136.952C68.9686 137.769 69.7468 138.428 70.633 138.882C71.5191 139.336 72.4903 139.572 73.4743 139.573H109.662C111.128 139.571 112.552 139.047 113.702 138.083C114.853 137.12 115.664 135.773 116.005 134.261L119.635 117.872H116.612Z" fill="white"/>
<path d="M109.633 139.919H73.4686C72.4389 139.918 71.4227 139.671 70.4959 139.196C69.569 138.72 68.7556 138.029 68.1163 137.173C67.4771 136.317 67.0286 135.319 66.8044 134.253C66.5803 133.188 66.5862 132.082 66.8219 131.02L69.7473 117.811C69.7628 117.745 69.7989 117.686 69.8498 117.644C69.9007 117.602 69.9634 117.58 70.0279 117.581H73.0507C73.0936 117.581 73.1358 117.592 73.1744 117.612C73.213 117.632 73.247 117.66 73.2739 117.696C73.3002 117.731 73.3185 117.773 73.3274 117.817C73.3364 117.861 73.3357 117.907 73.3255 117.951L70.2397 131.87C70.1259 132.386 70.1235 132.922 70.2327 133.44C70.3419 133.957 70.5598 134.441 70.8702 134.857C71.1806 135.272 71.5755 135.608 72.0254 135.839C72.4753 136.07 72.9687 136.191 73.4686 136.191H109.656C110.405 136.193 111.131 135.925 111.718 135.433C112.304 134.94 112.716 134.251 112.885 133.478L116.36 117.811C116.375 117.745 116.41 117.687 116.46 117.645C116.509 117.603 116.571 117.58 116.635 117.581H119.658C119.701 117.581 119.743 117.592 119.781 117.612C119.819 117.632 119.853 117.661 119.88 117.696C119.906 117.731 119.926 117.773 119.936 117.817C119.946 117.861 119.947 117.906 119.938 117.951L116.303 134.34C115.953 135.934 115.103 137.355 113.891 138.369C112.679 139.383 111.177 139.929 109.633 139.919ZM70.2282 118.188L67.3657 131.159C67.1486 132.134 67.1426 133.149 67.3483 134.126C67.554 135.104 67.966 136.019 68.5534 136.804C69.1407 137.589 69.8881 138.222 70.7394 138.656C71.5908 139.09 72.5238 139.314 73.4686 139.311H109.656C111.068 139.316 112.439 138.812 113.546 137.882C114.653 136.953 115.429 135.653 115.748 134.194L119.297 118.188H116.864L113.429 133.618C113.233 134.525 112.751 135.334 112.063 135.912C111.375 136.49 110.523 136.803 109.645 136.798H73.4686C72.8821 136.799 72.3031 136.658 71.7752 136.387C71.2472 136.117 70.7838 135.723 70.4198 135.235C70.0557 134.747 69.8005 134.179 69.6731 133.572C69.5458 132.965 69.5496 132.335 69.6844 131.73L72.6843 118.188H70.2282Z" fill="#41FD12"/>
<path d="M163.248 85.925C163.248 85.925 168.366 110.023 164.175 116.178C159.985 122.333 130.719 121.362 130.719 121.362C130.719 121.362 125.973 127.402 121.851 127.001C117.729 126.601 120.133 118.333 124.982 114.891L124.312 112.02L150.115 107.632L146.68 90.3137" fill="white"/>
<path d="M122.228 127.323C122.087 127.323 121.944 127.323 121.799 127.323C121.266 127.295 120.756 127.08 120.35 126.712C119.944 126.344 119.664 125.844 119.555 125.29C118.908 122.601 120.98 117.471 124.627 114.776L124.009 112.111C123.999 112.072 123.997 112.03 124.003 111.989C124.009 111.948 124.022 111.909 124.043 111.875C124.065 111.839 124.093 111.809 124.127 111.786C124.161 111.763 124.198 111.747 124.238 111.741L149.743 107.401L146.365 90.4047C146.357 90.3656 146.357 90.3254 146.364 90.2863C146.372 90.2471 146.386 90.2099 146.407 90.1766C146.427 90.1433 146.454 90.1147 146.485 90.0924C146.516 90.0701 146.551 90.0545 146.588 90.0466C146.625 90.0377 146.663 90.0366 146.699 90.0435C146.736 90.0503 146.772 90.0649 146.803 90.0864C146.835 90.1079 146.862 90.1358 146.883 90.1686C146.904 90.2014 146.919 90.2383 146.926 90.2772L150.361 107.595C150.369 107.636 150.37 107.678 150.362 107.719C150.354 107.76 150.338 107.798 150.315 107.832C150.294 107.866 150.266 107.895 150.233 107.917C150.201 107.938 150.164 107.953 150.126 107.959L124.633 112.3L125.205 114.849C125.22 114.909 125.217 114.972 125.196 115.029C125.176 115.087 125.139 115.136 125.091 115.171C121.587 117.659 119.486 122.667 120.087 125.156C120.164 125.585 120.376 125.974 120.688 126.259C121 126.545 121.393 126.71 121.805 126.728C125.726 127.117 130.392 121.265 130.427 121.198C130.454 121.163 130.49 121.135 130.529 121.116C130.569 121.097 130.612 121.088 130.656 121.089C130.948 121.089 159.853 121.981 163.895 116.027C167.937 110.072 162.979 86.2831 162.927 86.0221C162.919 85.9822 162.918 85.941 162.925 85.9009C162.932 85.8607 162.946 85.8223 162.967 85.7879C162.987 85.7535 163.014 85.7238 163.046 85.7005C163.078 85.6771 163.113 85.6606 163.151 85.6518C163.188 85.643 163.227 85.6422 163.265 85.6494C163.303 85.6565 163.339 85.6715 163.372 85.6935C163.404 85.7155 163.432 85.744 163.454 85.7775C163.476 85.811 163.492 85.8487 163.5 85.8886C163.712 86.878 168.595 110.169 164.376 116.385C160.254 122.455 133.238 121.775 130.793 121.696C130.146 122.497 126.064 127.323 122.228 127.323Z" fill="#231F20"/>
<path d="M132.545 73.9912C132.501 73.9904 132.457 73.9779 132.419 73.9547C132.384 73.9378 132.352 73.9136 132.326 73.8835C132.3 73.8533 132.28 73.8179 132.267 73.7794C132.254 73.7408 132.249 73.6999 132.252 73.6591C132.254 73.6183 132.264 73.5785 132.282 73.542C136.438 64.4368 147.109 58.3121 147.218 58.2514C147.252 58.2314 147.289 58.2189 147.327 58.2145C147.365 58.2101 147.404 58.214 147.441 58.2259C147.478 58.2378 147.512 58.2575 147.542 58.2838C147.571 58.3101 147.596 58.3424 147.613 58.3789C147.632 58.415 147.644 58.4548 147.648 58.4959C147.652 58.537 147.649 58.5786 147.638 58.6182C147.626 58.6578 147.608 58.6947 147.583 58.7265C147.558 58.7584 147.527 58.7847 147.493 58.8038C147.39 58.8645 136.884 64.8739 132.814 73.8151C132.789 73.8679 132.75 73.9122 132.703 73.9432C132.655 73.9743 132.601 73.9909 132.545 73.9912Z" fill="#231F20"/>
<path d="M114.9 73.5602C114.859 73.5693 114.816 73.5693 114.774 73.5602C104.802 68.7041 103.594 58.0329 103.582 57.9297C103.574 57.8468 103.597 57.764 103.647 57.6992C103.696 57.6344 103.767 57.5929 103.845 57.5837C103.884 57.5786 103.923 57.5817 103.96 57.5927C103.997 57.6037 104.032 57.6225 104.062 57.6479C104.093 57.6733 104.118 57.7049 104.137 57.7407C104.156 57.7766 104.168 57.8161 104.172 57.8568C104.172 57.96 105.363 68.2853 115.049 72.935C115.12 72.9694 115.175 73.0319 115.203 73.1091C115.231 73.1863 115.229 73.272 115.198 73.3477C115.176 73.4121 115.136 73.4674 115.082 73.5056C115.029 73.5438 114.965 73.5629 114.9 73.5602Z" fill="#231F20"/>
<path d="M69.4611 87.3211C69.3989 87.3023 69.3442 87.2624 69.3052 87.2077C69.2662 87.1529 69.2452 87.0862 69.2452 87.0176C69.2452 86.949 69.2662 86.8823 69.3052 86.8275C69.3442 86.7727 69.3989 86.7329 69.4611 86.7141C73.7777 86.5745 75.8731 83.9886 75.896 83.9643C75.9204 83.9327 75.9504 83.9066 75.9843 83.8873C76.0183 83.8681 76.0554 83.8561 76.0938 83.8522C76.1321 83.8482 76.1707 83.8524 76.2075 83.8643C76.2443 83.8763 76.2786 83.8958 76.3082 83.9218C76.3687 83.9751 76.4069 84.0516 76.4145 84.1346C76.422 84.2177 76.3982 84.3005 76.3483 84.365C76.2567 84.4803 74.0583 87.1936 69.4783 87.3393L69.4611 87.3211Z" fill="#231F20"/>
<path d="M146.646 90.6232C146.58 90.6238 146.515 90.6007 146.463 90.5578C146.412 90.5148 146.375 90.4544 146.359 90.3865C146.359 90.2772 143.663 79.09 143.291 72.3826C143.288 72.3419 143.294 72.3012 143.306 72.2627C143.319 72.2242 143.338 72.1887 143.364 72.1582C143.389 72.1277 143.42 72.1029 143.455 72.0852C143.49 72.0675 143.527 72.0571 143.565 72.0548C143.644 72.0498 143.72 72.0775 143.779 72.132C143.838 72.1866 143.874 72.2635 143.88 72.3462C144.252 78.9929 146.909 90.1194 146.932 90.2347C146.951 90.3152 146.94 90.4005 146.9 90.472C146.86 90.5436 146.796 90.5958 146.72 90.6172L146.646 90.6232Z" fill="#231F20"/>
<path d="M100.502 92.6203C100.463 92.618 100.425 92.6075 100.39 92.5894C100.355 92.5712 100.324 92.5459 100.298 92.5148C100.273 92.4836 100.253 92.4474 100.241 92.4082C100.229 92.369 100.224 92.3276 100.227 92.2864L101.647 68.7041C101.649 68.6629 101.659 68.6225 101.676 68.5854C101.693 68.5483 101.717 68.5152 101.747 68.4881C101.776 68.4609 101.81 68.4403 101.847 68.4273C101.884 68.4144 101.923 68.4094 101.962 68.4127C102.001 68.4142 102.038 68.424 102.073 68.4415C102.108 68.459 102.14 68.4838 102.165 68.5144C102.191 68.545 102.211 68.5809 102.223 68.6197C102.235 68.6586 102.24 68.6997 102.237 68.7405L100.794 92.3229C100.791 92.4028 100.759 92.4785 100.705 92.534C100.65 92.5894 100.578 92.6203 100.502 92.6203Z" fill="#231F20"/>
<path d="M151.191 79.43C151.138 79.4306 151.086 79.4157 151.04 79.3867C150.995 79.3578 150.958 79.316 150.934 79.2661L148.163 73.803C148.132 73.7233 148.132 73.6338 148.163 73.5541C148.189 73.4726 148.245 73.4051 148.317 73.3659L156.905 69.0622C156.94 69.0438 156.978 69.0329 157.017 69.0302C157.055 69.0275 157.094 69.0332 157.131 69.0467C157.168 69.0603 157.202 69.0816 157.231 69.1093C157.26 69.1369 157.283 69.1705 157.3 69.2079C157.333 69.2829 157.338 69.3688 157.312 69.4472C157.286 69.5256 157.233 69.5901 157.162 69.6268L148.838 73.7908L151.346 78.7198L159.779 75.9882C159.816 75.9763 159.856 75.9723 159.895 75.9765C159.934 75.9807 159.972 75.993 160.006 76.0127C160.041 76.0325 160.071 76.0592 160.096 76.0915C160.121 76.1237 160.14 76.1608 160.151 76.2007C160.162 76.2405 160.166 76.2824 160.162 76.3237C160.158 76.3651 160.146 76.4053 160.128 76.442C160.109 76.4786 160.084 76.511 160.053 76.5373C160.023 76.5636 159.988 76.5833 159.95 76.5952L151.277 79.436L151.191 79.43Z" fill="#231F20"/>
<path d="M158.628 148.696C166.435 148.696 172.763 146.677 172.763 144.186C172.763 141.695 166.435 139.676 158.628 139.676C150.821 139.676 144.493 141.695 144.493 144.186C144.493 146.677 150.821 148.696 158.628 148.696Z" fill="white"/>
<path d="M158.628 148.999C150.544 148.999 144.207 146.887 144.207 144.186C144.207 141.485 150.544 139.372 158.628 139.372C166.712 139.372 173.049 141.485 173.049 144.186C173.049 146.887 166.712 148.999 158.628 148.999ZM158.628 139.979C150.344 139.979 144.779 142.152 144.779 144.186C144.779 146.219 150.344 148.392 158.628 148.392C166.912 148.392 172.477 146.219 172.477 144.186C172.477 142.152 166.912 139.979 158.628 139.979Z" fill="#303334"/>
<path d="M147.974 131.305L147.636 131.372C146.614 131.533 145.685 132.089 145.025 132.932C144.656 133.531 144.452 134.228 144.436 134.943C144.421 135.659 144.596 136.365 144.939 136.981C146.439 139.846 150.092 140.623 152.909 140.92C153.307 140.989 153.716 140.956 154.099 140.823C154.289 140.754 154.454 140.625 154.572 140.454C154.689 140.282 154.754 140.076 154.758 139.864C154.734 139.689 154.669 139.524 154.569 139.383C154.469 139.242 154.337 139.13 154.185 139.057C153.89 138.912 153.575 138.817 153.252 138.777C151.5 138.474 149.657 138.249 148.054 137.393C147.121 136.89 145.815 135.742 146.497 134.504C146.735 134.112 147.078 133.804 147.481 133.618C149.09 132.804 150.619 133.423 152.205 133.921C152.32 133.966 152.443 133.985 152.565 133.976C152.717 133.932 152.848 133.83 152.933 133.69C153.019 133.55 153.053 133.382 153.029 133.217C152.977 132.483 152.285 132.003 151.632 131.73C150.467 131.261 149.207 131.114 147.974 131.305Z" fill="white"/>
<path d="M153.384 141.254C153.217 141.253 153.051 141.243 152.886 141.224C148.586 140.793 145.907 139.457 144.688 137.126C144.316 136.46 144.129 135.695 144.149 134.921C144.168 134.147 144.392 133.395 144.796 132.75C145.499 131.848 146.489 131.252 147.579 131.074L147.934 131.008C149.223 130.804 150.54 130.956 151.758 131.451C152.33 131.675 153.264 132.203 153.338 133.193C153.367 133.435 153.31 133.68 153.179 133.88C153.048 134.081 152.852 134.223 152.628 134.279C152.465 134.291 152.302 134.268 152.147 134.213L151.735 134.079C150.327 133.624 148.999 133.199 147.63 133.891C147.276 134.05 146.974 134.319 146.766 134.662C146.691 134.787 146.643 134.928 146.624 135.074C146.605 135.221 146.617 135.37 146.657 135.512C146.971 136.229 147.521 136.801 148.203 137.12C149.624 137.776 151.132 138.198 152.674 138.371L153.321 138.48C153.676 138.521 154.023 138.626 154.346 138.789C154.576 138.881 154.772 139.049 154.905 139.268C155.038 139.487 155.101 139.745 155.085 140.005C155.069 140.265 154.975 140.513 154.816 140.711C154.657 140.91 154.442 141.049 154.203 141.108C153.94 141.209 153.663 141.259 153.384 141.254ZM148.02 131.609L147.693 131.669C146.743 131.819 145.876 132.331 145.254 133.108C144.917 133.661 144.732 134.303 144.721 134.962C144.709 135.621 144.872 136.269 145.191 136.835C146.308 138.972 148.844 140.21 152.937 140.617C153.289 140.678 153.649 140.653 153.991 140.544C154.124 140.496 154.24 140.408 154.326 140.29C154.411 140.172 154.462 140.03 154.472 139.882C154.453 139.761 154.407 139.647 154.337 139.55C154.267 139.452 154.176 139.375 154.071 139.324C153.805 139.195 153.52 139.113 153.229 139.081L152.582 138.972C150.982 138.791 149.418 138.349 147.945 137.66C147.121 137.271 146.465 136.567 146.107 135.688C146.045 135.465 146.027 135.231 146.056 135.001C146.084 134.771 146.158 134.55 146.273 134.352C146.539 133.905 146.926 133.553 147.384 133.345C148.953 132.549 150.453 133.029 151.901 133.496L152.313 133.63C152.39 133.66 152.472 133.674 152.554 133.672C152.691 133.672 152.777 133.423 152.766 133.241C152.72 132.562 151.901 132.161 151.552 132.027C150.427 131.572 149.21 131.432 148.02 131.621V131.609Z" fill="#231F20"/>
<path d="M149.296 128.234C149.296 128.234 151.941 142.231 152.159 143.075C152.376 143.919 158.628 147.385 163.609 143.979L167.965 129.672L149.296 128.234Z" fill="white"/>
<path d="M158.737 145.758C157.24 145.745 155.758 145.445 154.363 144.872C153.264 144.423 152.016 143.694 151.878 143.154C151.666 142.31 149.124 128.871 149.016 128.294C149.005 128.249 149.005 128.201 149.016 128.156C149.027 128.11 149.047 128.068 149.077 128.033C149.106 127.998 149.143 127.971 149.184 127.954C149.225 127.937 149.269 127.931 149.313 127.936L167.983 129.405C168.026 129.407 168.069 129.42 168.107 129.443C168.145 129.465 168.177 129.497 168.202 129.535C168.226 129.574 168.242 129.618 168.248 129.663C168.253 129.709 168.249 129.756 168.235 129.8L163.878 144.107C163.856 144.173 163.814 144.229 163.758 144.265C162.257 145.271 160.512 145.79 158.737 145.758ZM149.651 128.567C150.081 130.844 152.245 142.249 152.434 142.996C152.514 143.196 153.544 144.01 155.37 144.599C157.088 145.151 160.374 145.776 163.385 143.785L167.599 129.951L149.651 128.567Z" fill="#231F20"/>
<path d="M168.01 129.05C168.102 126.678 163.989 124.574 158.824 124.349C153.659 124.124 149.397 125.864 149.305 128.236C149.214 130.607 153.326 132.712 158.492 132.937C163.657 133.162 167.919 131.421 168.01 129.05Z" fill="#231F20"/>
<path d="M159.384 133.26C159.08 133.26 158.777 133.26 158.473 133.26C153.063 133.029 148.907 130.832 149.01 128.246C149.113 125.66 153.424 123.839 158.828 124.076C164.233 124.312 168.389 126.504 168.286 129.089C168.24 130.364 167.141 131.517 165.246 132.27C163.364 132.971 161.378 133.306 159.384 133.26ZM157.947 124.634C153.407 124.634 149.657 126.212 149.577 128.276C149.497 130.437 153.584 132.446 158.496 132.659C160.726 132.796 162.96 132.464 165.069 131.681C166.729 131.008 167.702 130.042 167.742 129.041C167.828 126.874 163.735 124.865 158.828 124.652L157.947 124.634Z" fill="#231F20"/>
<path d="M136.255 89.3424H105.964C105.888 89.3424 105.815 89.3105 105.761 89.2535C105.708 89.1966 105.677 89.1194 105.677 89.0389V79.5574C105.679 79.4774 105.71 79.4011 105.763 79.3446C105.816 79.288 105.888 79.2555 105.964 79.2539H136.255C136.331 79.2539 136.403 79.2859 136.457 79.3428C136.511 79.3997 136.541 79.477 136.541 79.5574V89.0571C136.537 89.1344 136.504 89.207 136.451 89.2601C136.398 89.3131 136.328 89.3426 136.255 89.3424ZM106.25 88.7354H135.968V79.861H106.25V88.7354Z" fill="white"/>
<path d="M192.423 156.532H36.9488V162.888H192.423V156.532Z" fill="white"/>
<path d="M192.428 163.191H36.9488C36.8729 163.191 36.8001 163.159 36.7464 163.102C36.6927 163.045 36.6626 162.968 36.6626 162.888V156.532C36.664 156.452 36.6947 156.376 36.748 156.319C36.8014 156.263 36.8734 156.23 36.9488 156.229H192.428C192.504 156.23 192.576 156.263 192.629 156.319C192.683 156.376 192.713 156.452 192.715 156.532V162.888C192.715 162.968 192.684 163.045 192.631 163.102C192.577 163.159 192.504 163.191 192.428 163.191ZM37.2351 162.584H192.142V156.836H37.2351V162.584Z" fill="#3B3D3E"/>
<path d="M167.96 97.1789C167.884 97.1758 167.813 97.1418 167.761 97.0841C167.708 97.0264 167.679 96.9494 167.679 96.8694C167.679 96.1713 168.097 79.7153 169.809 74.0154C171.521 68.3156 174.732 65.9422 174.864 65.8512C174.927 65.8061 175.004 65.7894 175.079 65.8048C175.154 65.8201 175.219 65.8663 175.262 65.9331C175.304 65.9999 175.32 66.0819 175.306 66.161C175.291 66.2401 175.248 66.3099 175.185 66.355C175.15 66.355 172.019 68.6555 170.353 74.1975C168.687 79.7395 168.257 96.7115 168.252 96.8815C168.251 96.9214 168.243 96.9607 168.228 96.9972C168.213 97.0337 168.191 97.0667 168.164 97.0944C168.137 97.122 168.105 97.1437 168.07 97.1582C168.035 97.1727 167.997 97.1797 167.96 97.1789Z" fill="white"/>
</svg>
