<svg width="0" height="0" class="hidden">
  <!-- <symbol xmlns="http://www.w3.org/2000/svg" fill="none" stroke="currentColor" stroke-width="2" stroke-linecap="round" stroke-linejoin="round" viewBox="0 0 24 24" id="send">
    <line x1="22" y1="2" x2="11" y2="13"></line>
    <polygon points="22 2 15 22 11 13 2 9 22 2"></polygon>
  </symbol> -->
   <symbol fill="#fff" version="1.1" id="send" xmlns="http://www.w3.org/2000/svg" xmlns:xlink="http://www.w3.org/1999/xlink" xml:space="preserve" viewBox="0 0 495.003 495.003">
    <g id="XMLID_51_">
      <path id="XMLID_53_" d="M164.711,456.687c0,2.966,1.647,5.686,4.266,7.072c2.617,1.385,5.799,1.207,8.245-0.468l55.09-37.616
		l-67.6-32.22V456.687z"></path>
      <path id="XMLID_52_" d="M492.431,32.443c-1.513-1.395-3.466-2.125-5.44-2.125c-1.19,0-2.377,0.264-3.5,0.816L7.905,264.422
		c-4.861,2.389-7.937,7.353-7.904,12.783c0.033,5.423,3.161,10.353,8.057,12.689l125.342,59.724l250.62-205.99L164.455,364.414
		l156.145,74.4c1.918,0.919,4.012,1.376,6.084,1.376c1.768,0,3.519-0.322,5.186-0.977c3.637-1.438,6.527-4.318,7.97-7.956
		L494.436,41.257C495.66,38.188,494.862,34.679,492.431,32.443z"></path>
    </g>
  </symbol>
  <symbol xmlns="http://www.w3.org/2000/svg" fill="none" stroke="currentColor" stroke-width="2" stroke-linecap="round" stroke-linejoin="round" viewBox="0 0 24 24" id="facebook">
    <path d="M18 2h-3a5 5 0 0 0-5 5v3H7v4h3v8h4v-8h3l1-4h-4V7a1 1 0 0 1 1-1h3z"></path>
  </symbol>
    <symbol xmlns="http://www.w3.org/2000/svg" fill="none" stroke="currentColor" stroke-width="2" stroke-linecap="round" stroke-linejoin="round" viewBox="0 0 24 24" id="download">
    <path d="M21 15v4a2 2 0 0 1-2 2H5a2 2 0 0 1-2-2v-4"></path>
    <polyline points="7 10 12 15 17 10"></polyline>
    <line x1="12" y1="15" x2="12" y2="3"></line>
  </symbol>
   <symbol fill="none" xmlns="http://www.w3.org/2000/svg" viewBox="0 0 36 37" id="star">
    <g filter="url(#filter0_d_202_4)">
      <path d="M31.3064 10.7565L31.3069 10.758C31.4276 11.1264 31.449 11.523 31.3683 11.9033C31.2877 12.2836 31.1087 12.631 30.8532 12.9077L30.8527 12.9083L26.1669 18.0059L26.052 18.1309L26.0791 18.2985L27.2074 25.2869L27.2074 25.287C27.2696 25.6717 27.2295 26.0665 27.092 26.4275C26.9546 26.7885 26.7258 27.1004 26.4329 27.3303C26.1401 27.56 25.7942 27.6994 25.4334 27.735C25.0727 27.7707 24.7087 27.7015 24.381 27.5338L24.3809 27.5338L18.3057 24.4274L18.1408 24.343L17.9783 24.432L11.9932 27.7085L11.9929 27.7086C11.6701 27.8858 11.3081 27.9655 10.9464 27.9402C10.5847 27.9149 10.2349 27.7854 9.93566 27.5639C9.63627 27.3423 9.39877 27.0369 9.25132 26.6798C9.10383 26.3225 9.05281 25.9289 9.10447 25.5425L9.10452 25.5422L10.0353 18.5248L10.0577 18.3564L9.93927 18.2347L5.11174 13.2713C5.11172 13.2713 5.11169 13.2713 5.11167 13.2713C4.84908 13.0011 4.66084 12.6587 4.56957 12.2809C4.47828 11.9029 4.488 11.5059 4.59747 11.134C4.70691 10.7622 4.91131 10.4314 5.18615 10.177C5.46084 9.9227 5.79531 9.75434 6.15229 9.68819L12.8028 8.45755L12.9789 8.42497L13.0555 8.26309L16.0571 1.91912C16.2217 1.57158 16.4732 1.28076 16.7822 1.07686C17.091 0.873078 17.446 0.763447 17.8082 0.758339C18.1704 0.753231 18.5283 0.852811 18.8428 1.04781C19.1574 1.24291 19.417 1.52652 19.5913 1.86928L22.7706 8.1261L22.8517 8.28575L23.0287 8.31336L29.7115 9.356L29.7123 9.35613C30.0711 9.4112 30.4104 9.56957 30.6921 9.81596C30.974 10.0625 31.1873 10.3876 31.3064 10.7565ZM30.042 12.0406L30.2669 11.796L30.2196 11.7478C30.234 11.7082 30.2457 11.6676 30.2544 11.6262C30.287 11.4723 30.2786 11.312 30.2299 11.1623C30.1812 11.0125 30.0935 10.8775 29.9743 10.7732C29.855 10.6688 29.7089 10.5992 29.5513 10.5745L29.5509 10.5744L22.1265 9.41607L18.5912 2.4588C18.5912 2.45879 18.5912 2.45877 18.5912 2.45876C18.5197 2.31806 18.4115 2.19838 18.2765 2.11465C18.1414 2.03079 17.9853 1.98674 17.8256 1.98899C17.6658 1.99125 17.511 2.03968 17.3783 2.12731C17.2457 2.21482 17.1409 2.3375 17.0735 2.48016C17.0735 2.48018 17.0734 2.48019 17.0734 2.4802L13.7357 9.53439L6.34695 10.9016L6.34654 10.9017C6.18975 10.9309 6.0456 11.0045 5.9293 11.1123C5.81314 11.2199 5.72927 11.3573 5.68481 11.5084C5.64036 11.6594 5.63647 11.8199 5.67336 11.9729C5.71026 12.1259 5.78701 12.2673 5.89717 12.3808L5.89743 12.381L11.2703 17.9052L10.2339 25.7174C10.2338 25.7177 10.2338 25.7181 10.2337 25.7184C10.2124 25.8745 10.2325 26.0341 10.2924 26.18C10.3525 26.3264 10.4509 26.4548 10.5788 26.5495C10.707 26.6443 10.8593 26.7013 11.0191 26.7121C11.1788 26.7229 11.3373 26.6871 11.4768 26.6099C11.4771 26.6097 11.4773 26.6096 11.4775 26.6095L18.1214 22.9723L24.8652 26.4206C24.8656 26.4208 24.866 26.421 24.8664 26.4212C25.0079 26.4943 25.1672 26.5255 25.3263 26.5102C25.4858 26.4949 25.6364 26.4336 25.7618 26.3352C25.8871 26.237 25.9818 26.1059 26.0378 25.9579C26.0935 25.8103 26.1091 25.6502 26.0834 25.4948C26.0833 25.4944 26.0833 25.4941 26.0832 25.4938L24.827 17.714L30.042 12.0406Z" fill="#00B812" stroke="#00B812" stroke-width="0.7"></path>
    </g>
    <defs>
      <filter id="filter0_d_202_4" x="0.157572" y="0.408157" width="35.6087" height="35.8866" filterUnits="userSpaceOnUse" color-interpolation-filters="sRGB">
        <feFlood flood-opacity="0" result="BackgroundImageFix"></feFlood>
        <feColorMatrix in="SourceAlpha" type="matrix" values="0 0 0 0 0 0 0 0 0 0 0 0 0 0 0 0 0 0 127 0" result="hardAlpha"></feColorMatrix>
        <feOffset dy="4"></feOffset>
        <feGaussianBlur stdDeviation="2"></feGaussianBlur>
        <feComposite in2="hardAlpha" operator="out"></feComposite>
        <feColorMatrix type="matrix" values="0 0 0 0 0 0 0 0 0 0 0 0 0 0 0 0 0 0 0.25 0"></feColorMatrix>
        <feBlend mode="normal" in2="BackgroundImageFix" result="effect1_dropShadow_202_4"></feBlend>
        <feBlend mode="normal" in="SourceGraphic" in2="effect1_dropShadow_202_4" result="shape"></feBlend>
      </filter>
    </defs>
  </symbol>
  <symbol xmlns="http://www.w3.org/2000/svg" fill="none" stroke="currentColor" stroke-width="2" stroke-linecap="round" stroke-linejoin="round" viewBox="0 0 24 24" id="calendar">
    <rect x="3" y="4" width="18" height="18" rx="2" ry="2"></rect>
    <line x1="16" y1="2" x2="16" y2="6"></line>
    <line x1="8" y1="2" x2="8" y2="6"></line>
    <line x1="3" y1="10" x2="21" y2="10"></line>
  </symbol>
  <symbol fill="none" xmlns="http://www.w3.org/2000/svg" viewBox="0 0 78 69" id="cart">
    <path d="M70.6875 55.1825H71.1875V54.6825V53.1278V52.6278H70.6875H30.03C28.0288 52.6278 26.6506 52.1861 25.6085 51.1941C24.5457 50.1822 23.7622 48.5335 23.1121 45.9568L23.1122 45.9567L23.11 45.9485L22.3446 43.1188C23.6953 43.9794 25.2601 44.4013 27.0294 44.4013H64.8058C66.3265 44.4013 68.095 44.1094 69.6258 43.0789C71.1712 42.0385 72.4156 40.2848 72.9436 37.4797L72.9438 37.4798L72.9457 37.4679L76.9236 13.1287C76.9879 12.7384 76.8519 12.3554 76.5838 12.0799C76.3154 11.804 75.9381 11.6613 75.5625 11.6613H21.9375H21.4375V12.1613V13.7138V14.2138H21.9375H73.9602L70.2291 37.0591C69.9128 38.7365 69.3028 39.9181 68.4332 40.6831C67.5668 41.4452 66.3827 41.8466 64.8107 41.8466H27.0319C25.3648 41.8466 24.0153 41.3085 22.9037 40.1976C21.7766 39.0712 20.8643 37.3255 20.157 34.8612C20.1567 34.8601 20.1564 34.8591 20.1561 34.8581L15.278 16.9761L15.1547 16.5241L15.1221 16.5307L11.0856 1.84168C11.0855 1.84143 11.0854 1.84117 11.0854 1.84092C10.9209 1.2381 10.34 0.880005 9.75 0.880005H2.4375H1.9375V1.38V2.9325V3.4325H2.4375H8.67821L20.4301 46.5575C21.1806 49.5282 22.2434 51.7 23.817 53.1249C25.4048 54.5627 27.4477 55.1825 30.0276 55.1825H70.6875ZM57.1225 62.5313C57.1225 65.6684 59.9845 68.12 63.375 68.12C66.7655 68.12 69.6275 65.6684 69.6275 62.5313C69.6275 59.394 66.763 56.9425 63.375 56.9425C59.987 56.9425 57.1225 59.394 57.1225 62.5313ZM59.8775 62.5313C59.8775 60.912 61.3881 59.495 63.375 59.495C65.3619 59.495 66.8725 60.912 66.8725 62.5313C66.8725 64.1507 65.3642 65.5675 63.375 65.5675C61.3858 65.5675 59.8775 64.1507 59.8775 62.5313ZM24.2163 62.5313C24.2163 65.6685 27.0808 68.12 30.4688 68.12C33.8567 68.12 36.7212 65.6685 36.7212 62.5313C36.7212 59.394 33.8567 56.9425 30.4688 56.9425C27.0808 56.9425 24.2163 59.394 24.2163 62.5313ZM26.9712 62.5313C26.9712 60.912 28.4818 59.495 30.4688 59.495C32.4557 59.495 33.9663 60.912 33.9663 62.5313C33.9663 64.1505 32.4557 65.5675 30.4688 65.5675C28.4818 65.5675 26.9712 64.1505 26.9712 62.5313Z" fill="#DEE0E3" stroke="#DEE0E3"></path>
  </symbol>
  <symbol fill="none" xmlns="http://www.w3.org/2000/svg" viewBox="0 0 8 7" id="wallet">
    <path d="M6.32305 5.91813H1.58436C1.21049 5.91813 0.90741 5.61506 0.90741 5.24118V2.19488C0.90741 1.82101 1.21049 1.51793 1.58436 1.51793H6.32305C6.69693 1.51793 7 1.82101 7 2.19488V5.24118C7 5.61506 6.69693 5.91813 6.32305 5.91813Z" stroke="#FEFEFF" stroke-width="0.37"></path>
    <path d="M5.47686 3.88726C5.3834 3.88726 5.30762 3.81147 5.30762 3.71802C5.30762 3.62457 5.3834 3.54878 5.47686 3.54878C5.57031 3.54878 5.64609 3.62457 5.64609 3.71802C5.64609 3.81147 5.57031 3.88726 5.47686 3.88726Z" fill="black" stroke="#FEFEFF" stroke-width="0.37" stroke-linecap="round" stroke-linejoin="round"></path>
    <path d="M5.98457 1.51793V1.04515C5.98457 0.600373 5.56296 0.276453 5.1332 0.391055L1.40994 1.38392C1.1136 1.46295 0.90741 1.73133 0.90741 2.03802V2.19488" stroke="#FEFEFF" stroke-width="0.37"></path>
  </symbol>
    <symbol fill="none" xmlns="http://www.w3.org/2000/svg" viewBox="0 0 34 21" id="car">
    <path d="M9.17117 20C10.9633 20 12.4162 18.5814 12.4162 16.8313C12.4162 15.0812 10.9633 13.6626 9.17117 13.6626C7.37899 13.6626 5.92615 15.0812 5.92615 16.8313C5.92615 18.5814 7.37899 20 9.17117 20Z" stroke="white" stroke-width="2" stroke-miterlimit="1.5" stroke-linecap="round" stroke-linejoin="round"></path>
    <path d="M25.3963 20C27.1885 20 28.6413 18.5814 28.6413 16.8313C28.6413 15.0812 27.1885 13.6626 25.3963 13.6626C23.6041 13.6626 22.1513 15.0812 22.1513 16.8313C22.1513 18.5814 23.6041 20 25.3963 20Z" stroke="white" stroke-width="2" stroke-miterlimit="1.5" stroke-linecap="round" stroke-linejoin="round"></path>
    <path d="M20.6394 16.7682V1.86008C20.6394 1.38507 20.1998 1 19.6575 1H1.98197C1.43964 1 1 1.38507 1 1.86008V15.9081C1 16.3832 1.43964 16.7682 1.98197 16.7682H5.33704" stroke="white" stroke-width="2" stroke-linecap="round"></path>
    <path d="M20.5287 16.8313H12.4974" stroke="white" stroke-width="2" stroke-linecap="round"></path>
    <path d="M20.6394 6.114H28.9029C29.2521 6.114 29.5686 6.29997 29.7105 6.58854L32.3469 11.952C32.3972 12.0542 32.4231 12.1648 32.4231 12.2765V15.9691C32.4231 16.4105 32.0275 16.7682 31.5393 16.7682H28.7407" stroke="white" stroke-width="2" stroke-linecap="round"></path>
    <path d="M20.5288 16.8313H22.1513" stroke="white" stroke-width="2" stroke-linecap="round"></path>
  </symbol>
    <symbol fill="none" xmlns="http://www.w3.org/2000/svg" viewBox="0 0 49 51" id="layer">
    <path d="M43.1742 7.33101L28.3349 0.721706C26.1571 -0.240569 22.8651 -0.240569 20.6873 0.721706L5.84802 7.33101C2.10021 9.00233 1.54311 11.2814 1.54311 12.4969C1.54311 13.7124 2.10021 15.9915 5.84802 17.6628L20.6873 24.2721C21.7762 24.7532 23.1437 25.0064 24.5111 25.0064C25.8785 25.0064 27.246 24.7532 28.3349 24.2721L43.1742 17.6628C46.922 15.9915 47.4791 13.7124 47.4791 12.4969C47.4791 11.2814 46.9473 9.00233 43.1742 7.33101Z" fill="#ECEEF0"></path>
    <path opacity="0.4" d="M24.5127 38.0982C23.5504 38.0982 22.5881 37.8956 21.7018 37.5157L4.63411 29.9188C2.02584 28.754 0 25.6392 0 22.7777C0 21.7395 0.835659 20.9038 1.8739 20.9038C2.91215 20.9038 3.74781 21.7395 3.74781 22.7777C3.74781 24.1452 4.88734 25.9178 6.15349 26.4749L23.2212 34.0718C24.0315 34.4263 24.9685 34.4263 25.7788 34.0718L42.8465 26.4749C44.1127 25.9178 45.2522 24.1705 45.2522 22.7777C45.2522 21.7395 46.0879 20.9038 47.1261 20.9038C48.1643 20.9038 49 21.7395 49 22.7777C49 25.6139 46.9742 28.754 44.3659 29.9188L27.2982 37.5157C26.4372 37.8956 25.4749 38.0982 24.5127 38.0982Z" fill="#DEE0E3"></path>
    <path opacity="0.4" d="M24.5127 50.6584C23.5504 50.6584 22.5881 50.4558 21.7018 50.076L4.63411 42.4791C1.82326 41.2382 0 38.4274 0 35.338C0 34.2997 0.835659 33.4641 1.8739 33.4641C2.91215 33.4641 3.74781 34.2997 3.74781 35.338C3.74781 36.9333 4.68476 38.3767 6.15349 39.0351L23.2212 46.632C24.0315 46.9866 24.9685 46.9866 25.7788 46.632L42.8465 39.0351C44.2899 38.4021 45.2522 36.9333 45.2522 35.338C45.2522 34.2997 46.0879 33.4641 47.1261 33.4641C48.1643 33.4641 49 34.2997 49 35.338C49 38.4274 47.1767 41.2129 44.3659 42.4791L27.2982 50.076C26.4372 50.4558 25.4749 50.6584 24.5127 50.6584Z" fill="#DEE0E3"></path>
  </symbol>

   <symbol xmlns="http://www.w3.org/2000/svg" fill="none" stroke="currentColor" stroke-width="2" stroke-linecap="round" stroke-linejoin="round" viewBox="0 0 24 24" id="slash">
    <circle cx="12" cy="12" r="10"></circle>
    <line x1="4.93" y1="4.93" x2="19.07" y2="19.07"></line>
  </symbol>
    <symbol xmlns="http://www.w3.org/2000/svg" fill="none" stroke="currentColor" stroke-width="2" stroke-linecap="round" stroke-linejoin="round" viewBox="0 0 24 24" id="delete">
    <polyline points="3 6 5 6 21 6"></polyline>
    <path d="M19 6v14a2 2 0 0 1-2 2H7a2 2 0 0 1-2-2V6m3 0V4a2 2 0 0 1 2-2h4a2 2 0 0 1 2 2v2"></path>
    <line x1="10" y1="11" x2="10" y2="17"></line>
    <line x1="14" y1="11" x2="14" y2="17"></line>
  </symbol>
   <symbol fill="none" xmlns="http://www.w3.org/2000/svg" viewBox="0 0 76 80" id="file">
    <path opacity="0.4" d="M72 32.76H60.44C50.96 32.76 43.24 25.04 43.24 15.56V4C43.24 1.8 41.44 0 39.24 0H22.28C9.96 0 0 8 0 22.28V57.72C0 72 9.96 80 22.28 80H53.72C66.04 80 76 72 76 57.72V36.76C76 34.56 74.2 32.76 72 32.76Z" fill="#ADB2B8"></path>
    <path d="M53.1988 0.839972C51.5588 -0.800028 48.7188 0.319972 48.7188 2.59997V16.56C48.7188 22.4 53.6788 27.24 59.7188 27.24C63.5188 27.28 68.7988 27.28 73.3188 27.28C75.5988 27.28 76.7988 24.6 75.1988 23C69.4388 17.2 59.1188 6.75997 53.1988 0.839972Z" fill="#4DA078"></path>
  </symbol>
    <symbol xmlns="http://www.w3.org/2000/svg" fill="none" stroke="currentColor" stroke-width="2" stroke-linecap="round" stroke-linejoin="round" viewBox="0 0 24 24" id="edit">
    <path d="M11 4H4a2 2 0 0 0-2 2v14a2 2 0 0 0 2 2h14a2 2 0 0 0 2-2v-7"></path>
    <path d="M18.5 2.5a2.121 2.121 0 0 1 3 3L12 15l-4 1 1-4 9.5-9.5z"></path>
  </symbol>
   <symbol xmlns="http://www.w3.org/2000/svg" fill="none" stroke="currentColor" stroke-width="2" stroke-linecap="round" stroke-linejoin="round" viewBox="0 0 24 24" id="linkdin">
    <path d="M16 8a6 6 0 0 1 6 6v7h-4v-7a2 2 0 0 0-2-2 2 2 0 0 0-2 2v7h-4v-7a6 6 0 0 1 6-6z"></path>
    <rect x="2" y="9" width="4" height="12"></rect>
    <circle cx="4" cy="4" r="2"></circle>
  </symbol>
    <symbol xmlns="http://www.w3.org/2000/svg" fill="none" stroke="currentColor" stroke-width="2" stroke-linecap="round" stroke-linejoin="round" viewBox="0 0 24 24" id="instagram">
    <rect x="2" y="2" width="20" height="20" rx="5" ry="5"></rect>
    <path d="M16 11.37A4 4 0 1 1 12.63 8 4 4 0 0 1 16 11.37z"></path>
    <line x1="17.5" y1="6.5" x2="17.51" y2="6.5"></line>
  </symbol>
    <symbol xmlns="http://www.w3.org/2000/svg" fill="none" stroke="currentColor" stroke-width="2" stroke-linecap="round" stroke-linejoin="round" viewBox="0 0 24 24" id="twitter">
    <path d="M23 3a10.9 10.9 0 0 1-3.14 1.53 4.48 4.48 0 0 0-7.86 3v1A10.66 10.66 0 0 1 3 4s-4 9 5 13a11.64 11.64 0 0 1-7 2c9 5 20 0 20-11.5a4.5 4.5 0 0 0-.08-.83A7.72 7.72 0 0 0 23 3z"></path>
  </symbol>
    <symbol fill="none" xmlns="http://www.w3.org/2000/svg" viewBox="0 0 25 25" id="Cancel">
    <path d="M12.0328 0C5.40271 0 0 5.40271 0 12.0328C0 18.6628 5.40271 24.0655 12.0328 24.0655C18.6628 24.0655 24.0655 18.6628 24.0655 12.0328C24.0655 5.40271 18.6628 0 12.0328 0ZM16.0758 14.8003C16.4247 15.1492 16.4247 15.7268 16.0758 16.0758C15.8953 16.2563 15.6667 16.3405 15.438 16.3405C15.2094 16.3405 14.9808 16.2563 14.8003 16.0758L12.0328 13.3082L9.26522 16.0758C9.08473 16.2563 8.85611 16.3405 8.62749 16.3405C8.39887 16.3405 8.17024 16.2563 7.98975 16.0758C7.6408 15.7268 7.6408 15.1492 7.98975 14.8003L10.7573 12.0328L7.98975 9.26522C7.6408 8.91627 7.6408 8.3387 7.98975 7.98975C8.3387 7.6408 8.91627 7.6408 9.26522 7.98975L12.0328 10.7573L14.8003 7.98975C15.1492 7.6408 15.7268 7.6408 16.0758 7.98975C16.4247 8.3387 16.4247 8.91627 16.0758 9.26522L13.3082 12.0328L16.0758 14.8003Z" fill="#EA0D1B"></path>
  </symbol>
  <symbol fill="none" xmlns="http://www.w3.org/2000/svg" viewBox="0 0 21 19" id="laptop">
    <path d="M18.575 1.9447H2.42501C1.90034 1.9447 1.47501 2.37003 1.47501 2.8947V12.3947C1.47501 12.9194 1.90034 13.3447 2.42501 13.3447H18.575C19.0997 13.3447 19.525 12.9194 19.525 12.3947V2.8947C19.525 2.37003 19.0997 1.9447 18.575 1.9447Z" fill="white" stroke="white" stroke-width="2"></path>
    <path d="M1 17.1447H20" stroke="white" stroke-width="2" stroke-linecap="round" stroke-linejoin="round"></path>
    <path d="M9.55 4.7947H11.45" stroke="white" stroke-width="2" stroke-linecap="round" stroke-linejoin="round"></path>
  </symbol>
  <symbol xmlns="http://www.w3.org/2000/svg" fill="none" stroke="currentColor" stroke-width="2" stroke-linecap="round" stroke-linejoin="round" viewBox="0 0 24 24" id="watch">
    <circle cx="12" cy="12" r="7"></circle>
    <polyline points="12 9 12 12 13.5 13.5"></polyline>
    <path d="M16.51 17.35l-.35 3.83a2 2 0 0 1-2 1.82H9.83a2 2 0 0 1-2-1.82l-.35-3.83m.01-10.7l.35-3.83A2 2 0 0 1 9.83 1h4.35a2 2 0 0 1 2 1.82l.35 3.83"></path>
  </symbol>
    <symbol xmlns="http://www.w3.org/2000/svg" fill="none" stroke="currentColor" stroke-width="2" stroke-linecap="round" stroke-linejoin="round" viewBox="0 0 24 24" id="mail">
    <path d="M4 4h16c1.1 0 2 .9 2 2v12c0 1.1-.9 2-2 2H4c-1.1 0-2-.9-2-2V6c0-1.1.9-2 2-2z"></path>
    <polyline points="22,6 12,13 2,6"></polyline>
  </symbol>
    <symbol xmlns="http://www.w3.org/2000/svg" fill="none" stroke="currentColor" stroke-width="2" stroke-linecap="round" stroke-linejoin="round" viewBox="0 0 24 24" id="forward">
    <polygon points="13 19 22 12 13 5 13 19"></polygon>
    <polygon points="2 19 11 12 2 5 2 19"></polygon>
  </symbol>
    <symbol xmlns="http://www.w3.org/2000/svg" fill="none" stroke="currentColor" stroke-width="2" stroke-linecap="round" stroke-linejoin="round" viewBox="0 0 24 24" id="check-circle">
    <path d="M22 11.08V12a10 10 0 1 1-5.93-9.14"></path>
    <polyline points="22 4 12 14.01 9 11.01"></polyline>
  </symbol>
   <symbol xmlns="http://www.w3.org/2000/svg" fill="none" stroke="currentColor" stroke-width="2" stroke-linecap="round" stroke-linejoin="round" viewBox="0 0 24 24" id="arrow-circle">
    <circle cx="12" cy="12" r="10"></circle>
    <polyline points="12 16 16 12 12 8"></polyline>
    <line x1="8" y1="12" x2="16" y2="12"></line>
  </symbol>
    <symbol xmlns="http://www.w3.org/2000/svg" fill="none" stroke="currentColor" stroke-width="2" stroke-linecap="round" stroke-linejoin="round" viewBox="0 0 24 24" id="github">
    <path d="M9 19c-5 1.5-5-2.5-7-3m14 6v-3.87a3.37 3.37 0 0 0-.94-2.61c3.14-.35 6.44-1.54 6.44-7A5.44 5.44 0 0 0 20 4.77 5.07 5.07 0 0 0 19.91 1S18.73.65 16 2.48a13.38 13.38 0 0 0-7 0C6.27.65 5.09 1 5.09 1A5.07 5.07 0 0 0 5 4.77a5.44 5.44 0 0 0-1.5 3.78c0 5.42 3.3 6.61 6.44 7A3.37 3.37 0 0 0 9 18.13V22"></path>
  </symbol>

    <symbol xmlns="http://www.w3.org/2000/svg" fill="none" stroke="currentColor" stroke-width="2" stroke-linecap="round" stroke-linejoin="round" viewBox="0 0 24 24" id="send">
    <line x1="22" y1="2" x2="11" y2="13"></line>
    <polygon points="22 2 15 22 11 13 2 9 22 2"></polygon>
  </symbol>
    <symbol xmlns="http://www.w3.org/2000/svg" fill="none" stroke="currentColor" stroke-width="2" stroke-linecap="round" stroke-linejoin="round" viewBox="0 0 24 24" id="menu">
    <line x1="3" y1="12" x2="21" y2="12"></line>
    <line x1="3" y1="6" x2="21" y2="6"></line>
    <line x1="3" y1="18" x2="21" y2="18"></line>
  </symbol>
    <symbol xmlns="http://www.w3.org/2000/svg" fill="none" stroke="currentColor" stroke-width="2" stroke-linecap="round" stroke-linejoin="round" viewBox="0 0 24 24" id="x">
    <line x1="18" y1="6" x2="6" y2="18"></line>
    <line x1="6" y1="6" x2="18" y2="18"></line>
  </symbol>
   <symbol xmlns="http://www.w3.org/2000/svg" fill="none" stroke="currentColor" stroke-width="2" stroke-linecap="round" stroke-linejoin="round" viewBox="0 0 24 24" id="right-arrow">
    <polyline points="9 18 15 12 9 6"></polyline>
  </symbol>

    <symbol xmlns="http://www.w3.org/2000/svg" fill="none" stroke="currentColor" stroke-width="2" stroke-linecap="round" stroke-linejoin="round" viewBox="0 0 24 24" id="success">
    <path d="M22 11.08V12a10 10 0 1 1-5.93-9.14"></path>
    <polyline points="22 4 12 14.01 9 11.01"></polyline>
  </symbol>
    <symbol xmlns="http://www.w3.org/2000/svg" fill="none" stroke="currentColor" stroke-width="2" stroke-linecap="round" stroke-linejoin="round" viewBox="0 0 24 24" id="info">
    <circle cx="12" cy="12" r="10"></circle>
    <line x1="12" y1="8" x2="12" y2="12"></line>
    <line x1="12" y1="16" x2="12.01" y2="16"></line>
  </symbol>
    <symbol xmlns="http://www.w3.org/2000/svg" fill="none" stroke="currentColor" stroke-width="2" stroke-linecap="round" stroke-linejoin="round" viewBox="0 0 24 24" id="danger">
    <path d="M10.29 3.86L1.82 18a2 2 0 0 0 1.71 3h16.94a2 2 0 0 0 1.71-3L13.71 3.86a2 2 0 0 0-3.42 0z"></path>
    <line x1="12" y1="9" x2="12" y2="13"></line>
    <line x1="12" y1="17" x2="12.01" y2="17"></line>
  </symbol>
    <symbol xmlns="http://www.w3.org/2000/svg" fill="none" stroke="currentColor" stroke-width="2" stroke-linecap="round" stroke-linejoin="round" viewBox="0 0 24 24" id="close">
    <circle cx="12" cy="12" r="10"></circle>
    <line x1="15" y1="9" x2="9" y2="15"></line>
    <line x1="9" y1="9" x2="15" y2="15"></line>
  </symbol>
   <symbol xmlns="http://www.w3.org/2000/svg" fill="none" stroke="currentColor" stroke-width="2" stroke-linecap="round" stroke-linejoin="round" viewBox="0 0 24 24" id="tv">
    <rect x="2" y="7" width="20" height="15" rx="2" ry="2"></rect>
    <polyline points="17 2 12 7 7 2"></polyline>
  </symbol>
   <symbol xmlns="http://www.w3.org/2000/svg" fill="none" stroke="currentColor" stroke-width="2" stroke-linecap="round" stroke-linejoin="round" viewBox="0 0 24 24" id="smartphone">
    <rect x="5" y="2" width="14" height="20" rx="2" ry="2"></rect>
    <line x1="12" y1="18" x2="12.01" y2="18"></line>
  </symbol>
   <symbol version="1.1" id="air-conditioner" xmlns="http://www.w3.org/2000/svg" xmlns:xlink="http://www.w3.org/1999/xlink" xml:space="preserve" fill="#fff" viewBox="0 0 496 496">
    <g id="SVGRepo_bgCarrier" stroke-width="0"></g>
    <g id="SVGRepo_tracerCarrier" stroke-linecap="round" stroke-linejoin="round"></g>
    <g id="SVGRepo_iconCarrier">
      <path d="M496,309.6c0,27.2-6.4,48.8-32.8,48.8H32.8C5.6,358.4,0,336.8,0,309.6V186.4 c0-27.2,21.6-48.8,48.8-48.8h398.4c27.2,0,48.8,21.6,48.8,48.8L496,309.6L496,309.6z"></path>
      <g>
        <path d="M0,186.4c0-27.2,21.6-48.8,48.8-48.8h398.4c27.2,0,48.8,21.6,48.8,48.8"></path>
      </g>
      <path d="M464.8,308.8c0,5.6-4,9.6-9.6,9.6H40.8c-5.6,0-9.6-4-9.6-9.6l0,0c0-5.6,4-9.6,9.6-9.6h414.4 C460.8,299.2,464.8,303.2,464.8,308.8L464.8,308.8z"></path>
      <path d="M31.2,308.8L31.2,308.8c0-5.6,4-9.6,9.6-9.6h414.4c5.6,0,9.6,4,9.6,9.6l0,0"></path>
      <path d="M464.8,336c0,5.6-4,9.6-9.6,9.6H40.8c-5.6,0-9.6-4-9.6-9.6l0,0c0-5.6,4-9.6,9.6-9.6h414.4 C460.8,326.4,464.8,330.4,464.8,336L464.8,336z"></path>
      <path d="M31.2,336L31.2,336c0-5.6,4-9.6,9.6-9.6h414.4c5.6,0,9.6,4,9.6,9.6l0,0"></path>
      <path d="M145.6,267.2c0,2.4-2.4,4.8-4.8,4.8H39.2c-2.4,0-4.8-2.4-4.8-4.8v-33.6c0-2.4,2.4-4.8,4.8-4.8h102.4 c2.4,0,4.8,2.4,4.8,4.8v33.6H145.6z"></path>
      <path d="M140.8,229.6c2.4,0,4.8,2.4,4.8,4.8V268c0,2.4-2.4,4.8-4.8,4.8H39.2c-2.4,0-4.8-2.4-4.8-4.8"></path>
    </g>
  </symbol>
   <symbol xmlns="http://www.w3.org/2000/svg" fill="none" stroke="currentColor" stroke-width="2" stroke-linecap="round" stroke-linejoin="round" viewBox="0 0 24 24" id="printer">
    <polyline points="6 9 6 2 18 2 18 9"></polyline>
    <path d="M6 18H4a2 2 0 0 1-2-2v-5a2 2 0 0 1 2-2h16a2 2 0 0 1 2 2v5a2 2 0 0 1-2 2h-2"></path>
    <rect x="6" y="14" width="12" height="8"></rect>
  </symbol>
   <symbol xmlns="http://www.w3.org/2000/svg" fill="none" stroke="currentColor" stroke-width="2" stroke-linecap="round" stroke-linejoin="round" viewBox="0 0 24 24" id="camera">
    <path d="M23 19a2 2 0 0 1-2 2H3a2 2 0 0 1-2-2V8a2 2 0 0 1 2-2h4l2-3h6l2 3h4a2 2 0 0 1 2 2z"></path>
    <circle cx="12" cy="13" r="4"></circle>
  </symbol>
   <symbol xmlns="http://www.w3.org/2000/svg" fill="none" stroke="currentColor" stroke-width="2" stroke-linecap="round" stroke-linejoin="round" viewBox="0 0 24 24" id="shield">
    <path d="M12 22s8-4 8-10V5l-8-3-8 3v7c0 6 8 10 8 10z"></path>
  </symbol>
   <symbol fill="#fafafa" enable-background="new 0 0 64 64" version="1.1" xml:space="preserve" xmlns="http://www.w3.org/2000/svg" xmlns:xlink="http://www.w3.org/1999/xlink" viewBox="0 0 64 64" id="electronic-powerbank">
    <g id="SVGRepo_bgCarrier" stroke-width="0"></g>
    <g id="SVGRepo_tracerCarrier" stroke-linecap="round" stroke-linejoin="round"></g>
    <g id="SVGRepo_iconCarrier">
      <g id="_x31_-smartphone"></g>
      <g id="_x32_-smartTV"></g>
      <g id="_x33_-telepon"></g>
      <g id="_x34_-computer"></g>
      <g id="_x35_-kalkulator"></g>
      <g id="_x36_-radio"></g>
      <g id="_x37_-hadset"></g>
      <g id="_x38_-usbflashdisk"></g>
      <g id="_x39_-camera"></g>
      <g id="_x31_0-printer"></g>
      <g id="_x31_1-powerbank">
        <g>
          <polygon points="28.628,55.51 30.372,56.49 40.482,38.517 27.942,41.41 38.3,27.6 36.7,26.4 23.058,44.59 36.518,41.483 "></polygon>
          <path d="M49,25h-6v6h6V25z M47,29h-2v-2h2V29z"></path>
          <path d="M49,34h-6v6h6V34z M47,38h-2v-2h2V38z"></path>
          <path d="M49,43h-6v6h6V43z M47,47h-2v-2h2V47z"></path>
          <path d="M52.762,3H41.238C37.798,3,35,6.112,35,9.938v3.285h-4V19H17c-3.309,0-6,2.691-6,6v30c0,3.309,2.691,6,6,6h30 c3.309,0,6-2.691,6-6V25c0-3.309-2.691-6-6-6h-5v-5.778h-5V9.938C37,7.215,38.901,5,41.238,5h11.523C55.099,5,57,7.215,57,9.938 V61h2V9.938C59,6.112,56.202,3,52.762,3z M51,25v30c0,2.206-1.794,4-4,4H17c-2.206,0-4-1.794-4-4V25c0-2.206,1.794-4,4-4h30 C49.206,21,51,22.794,51,25z M40,19h-7v-3.778h7V19z"></path>
        </g>
      </g>
      <g id="_x31_2-kulkas"></g>
      <g id="_x31_3-modem"></g>
      <g id="_x31_4-tablet"></g>
      <g id="_x31_5-gamebot"></g>
      <g id="_x31_6-wasing_machine"></g>
      <g id="_x31_7-handdryer"></g>
      <g id="_x31_8-blender"></g>
      <g id="_x31_9-controller"></g>
      <g id="_x32_0-michrophone"></g>
      <g id="_x32_1-lamp"></g>
    </g>
  </symbol>
 <symbol version="1.1" id="fan" xmlnsSketch="http://www.bohemiancoding.com/sketch/ns" xmlns="http://www.w3.org/2000/svg" xmlns:xlink="http://www.w3.org/1999/xlink" enable-background="new 0 0 64 64" xml:space="preserve" fill="#ffffff" stroke="#ffffff" viewBox="0 0 64 64">
    <g id="SVGRepo_bgCarrier" stroke-width="0"></g>
    <g id="SVGRepo_tracerCarrier" stroke-linecap="round" stroke-linejoin="round"></g>
    <g id="SVGRepo_iconCarrier">
      <title>Fan</title>
      <desc>Created with Sketch.</desc>
      <g id="Page-1" sketchType="MSPage">
        <g id="Fan" transform="translate(1.000000, 1.000000)" sketchType="MSLayerGroup">
          <circle id="Oval_1_" sketchType="MSShapeGroup" fill="none" stroke="#ffffff" stroke-width="2" cx="31" cy="31" r="31"></circle>
          <path id="Shape" sketchType="MSShapeGroup" fill="none" stroke="#ffffff" stroke-width="2" d="M51,22c-6.2,0-9.8,4.5-14.7,7.1 c-0.6-1.6-1.9-2.8-3.5-3.3c2.6-5,7-8.7,7-14.9C39.8,6,35.9,4,31,4s-8.8,2.1-8.8,6.9c0,6.2,4.4,9.9,7,14.9 c-1.6,0.5-2.8,1.8-3.4,3.3c-4.9-2.6-8.5-7.1-14.7-7.1c-4.9,0-7,4.1-7,8.9s2.1,9,7,9c6.2,0,9.8-4.5,14.7-7.1 c0.6,1.6,1.8,2.9,3.4,3.4c-2.6,4.9-6.9,8.6-6.9,14.8c0,4.9,3.9,6.9,8.8,6.9s8.8-2.1,8.8-6.9c0-6.2-4.3-9.9-6.9-14.8 c1.6-0.6,2.9-1.8,3.4-3.4c4.9,2.6,8.5,7.1,14.7,7.1c4.9,0,7-4.1,7-9S55.9,22,51,22L51,22z"></path>
          <ellipse id="Oval" sketchType="MSShapeGroup" fill="none" stroke="#ffffff" stroke-width="2" cx="30.9" cy="31" rx="1.9" ry="2"></ellipse>
        </g>
      </g>
    </g>
  </symbol>
    <g id="SVGRepo_bgCarrier" stroke-width="0"></g>
    <g id="SVGRepo_tracerCarrier" stroke-linecap="round" stroke-linejoin="round" stroke="#CCCCCC" stroke-width="0.256"></g>
    <g id="SVGRepo_iconCarrier">
      <title id="title7560"></title>
      <defs id="defs7542"></defs>
      <g id="layer1">
        <path d="m 32.003906,8.6621094 c -2.479784,-1e-7 -4.501953,2.0202156 -4.501953,4.4999996 v 0.002 c 0.002,0.48437 0.08305,0.965003 0.238281,1.423829 l -0.01953,-0.07813 1.857422,11.154296 h 4.849609 l 1.855469,-11.142578 -0.01953,0.08008 c 0.157382,-0.462894 0.238981,-0.948583 0.240234,-1.4375 v -0.002 c 0,-2.479784 -2.020215,-4.4999997 -4.5,-4.4999996 z m 0,1.0019531 c 1.938494,-10e-8 3.498047,1.5595535 3.498047,3.4980465 -9.74e-4,0.380121 -0.06319,0.757299 -0.185547,1.117188 l -0.01367,0.03711 -1.724609,10.345703 H 30.427734 L 28.701172,14.306641 28.6875,14.267578 c -0.120687,-0.356726 -0.182062,-0.730837 -0.183594,-1.107422 0.0011,-1.937566 1.562174,-3.4960936 3.5,-3.4960935 z" id="path4721"></path>
        <path d="m 32.003906,24.662109 c -4.688923,0 -8.501953,3.811077 -8.501953,8.5 0,4.688924 3.81303,8.501953 8.501953,8.501953 4.688924,0 8.5,-3.813029 8.5,-8.501953 0,-4.688923 -3.811076,-8.5 -8.5,-8.5 z m 0,1.001953 c 4.147632,0 7.498047,3.350415 7.498047,7.498047 0,4.147633 -3.350415,7.5 -7.498047,7.5 -4.147632,0 -7.5,-3.352367 -7.5,-7.5 0,-4.147632 3.352368,-7.498047 7.5,-7.498047 z" id="path4740"></path>
        <path d="m 39.589844,34.726562 -2.423828,4.199219 8.720703,7.177735 -0.05859,-0.05664 c 0.322188,0.367744 0.702212,0.682191 1.125,0.927734 2.147555,1.239889 4.908546,0.499116 6.148437,-1.648437 1.239893,-2.147556 0.501072,-4.906592 -1.646484,-6.146484 l -0.002,-0.002 c -0.42046,-0.240477 -0.876594,-0.410878 -1.351563,-0.505859 l 0.07617,0.02148 z m 0.443359,1.236329 9.832031,3.683593 0.03906,0.0078 c 0.368674,0.07372 0.722372,0.206094 1.048828,0.392578 1.678784,0.969247 2.250497,3.100513 1.28125,4.779297 -0.969246,1.678782 -3.100513,2.250494 -4.779297,1.28125 -0.328707,-0.190904 -0.622554,-0.432838 -0.873047,-0.71875 l -0.02734,-0.03125 -8.097657,-6.666016 z" id="path4742"></path>
        <path d="m 24.224609,34.726562 -10.58789,3.966797 0.07813,-0.02148 c -0.474969,0.09498 -0.933055,0.265382 -1.353516,0.505859 l -0.002,0.002 c -2.147556,1.239892 -2.8863762,3.998927 -1.646484,6.146484 1.239892,2.147556 4.000881,2.888329 6.148437,1.648437 0.422788,-0.245543 0.802812,-0.55999 1.125,-0.927734 l -0.05859,0.05664 8.720704,-7.177735 z m -0.443359,1.236329 1.576172,2.728515 -8.097656,6.666016 -0.02539,0.03125 c -0.250493,0.285912 -0.546293,0.527846 -0.875,0.71875 -1.678784,0.969246 -3.81005,0.397534 -4.779297,-1.28125 -0.968991,-1.678343 -0.398462,-3.809694 1.279297,-4.779297 0.326898,-0.186965 0.681505,-0.318733 1.050781,-0.392578 l 0.03906,-0.0078 z" id="path4744"></path>
        <path d="m 24.00293,18.740628 c -4.798742,2.669543 -8.127733,7.660342 -8.464844,13.453125 l 1.050782,-0.607422 c 0.503541,-4.965258 3.348044,-9.228272 7.414062,-11.685547 z m 16,0 v 1.160156 c 4.491827,2.713949 7.501953,7.62732 7.501953,13.261719 0,0.203086 -0.02352,0.40038 -0.03125,0.601562 l 0.968747,0.558594 c 0.0269,-0.384965 0.0586,-0.768387 0.0586,-1.160156 0,-6.203788 -3.432459,-11.604491 -8.498044,-14.421875 z m -16.542969,27.353516 -0.947265,0.546875 c 2.686102,1.895529 5.954914,3.019531 9.490234,3.019531 2.780443,0 5.396309,-0.695801 7.695312,-1.912109 l -1.039062,-0.59961 c -2.018909,0.962219 -4.269472,1.515625 -6.65625,1.515625 -3.159268,0 -6.093321,-0.949538 -8.542969,-2.570312 z" id="path4748"></path>
        <path d="m 40.00293,15.391019 v 1.109375 c 6.207152,2.983821 10.5,9.309832 10.5,16.662109 0,0.767279 -0.0618,1.519037 -0.15234,2.261719 l 0.93164,0.539062 c 0.13257,-0.917336 0.22461,-1.846986 0.22461,-2.800781 0,-7.911143 -4.728365,-14.713532 -11.50391,-17.771484 z m -16,0.002 c -6.774477,3.058343 -11.501953,9.859118 -11.501953,17.769484 0,0.259154 0.0095,0.516724 0.01953,0.773438 l 0.994141,-0.574219 c -7.14e-4,-0.06708 -0.0098,-0.131969 -0.0098,-0.199219 0,-7.352277 4.290895,-13.678288 10.498047,-16.662109 z m -3.378906,32.339843 -0.9375,0.541016 c 3.359392,2.742541 7.645643,4.392578 12.316406,4.392578 3.942551,0 7.608276,-1.180329 10.677734,-3.195312 l -0.986328,-0.57036 c -2.820511,1.739837 -6.131813,2.761719 -9.691406,2.761719 -4.29697,0 -8.240031,-1.475061 -11.378906,-3.929688 z" id="path4750"></path>
        <path d="m 24.00293,12.475003 c -8.292756,3.213295 -14.181641,11.266008 -14.181641,20.6875 0,0.765161 0.03945,1.520367 0.115235,2.265625 l 1.099609,-0.634766 c -0.04126,-0.538707 -0.07031,-1.081503 -0.07031,-1.630859 0,-8.793099 5.384035,-16.314675 13.037109,-19.460938 z m 16,0 v 1.226562 c 7.653785,3.145935 13.03906,10.667326 13.03906,19.460938 0,1.239856 -0.11303,2.452056 -0.31836,3.632812 l 1.04493,0.603516 c 0.26562,-1.37158 0.41015,-2.787416 0.41015,-4.236328 0,-9.421492 -5.88504,-17.474205 -14.17578,-20.6875 z m -21.726562,36.613281 -1.050782,0.605469 c 3.924437,3.509017 9.102718,5.644531 14.777344,5.644531 4.962463,0 9.544397,-1.63228 13.240234,-4.388672 l -1.089843,-0.628906 c -3.433162,2.43469 -7.617459,3.88086 -12.150391,3.880859 -5.253024,0 -10.041902,-1.934597 -13.726562,-5.113281 z" id="circle4756"></path>
        <path d="m 25.499024,31.162503 c 0,4.688923 3.814983,8.503904 8.503905,8.503904 v -1.003902 c -4.147632,0 -7.499999,-3.35237 -7.499999,-7.500002 z" id="circle4826"></path>
      </g>
    </g>
  </symbol>
    <symbol fill="none" xmlns="http://www.w3.org/2000/svg" viewBox="0 0 33 36" id="laptop">
    <path d="M6.875 8.5H6.375V9V21V21.5H6.875H26.125H26.625V21V9V8.5H26.125H6.875ZM28.8749 29.5H4.12509L28.875 27.5C29.0923 27.5001 29.3105 27.5939 29.4785 27.7773C29.648 27.9621 29.7498 28.2215 29.7498 28.5C29.7498 28.7785 29.648 29.0379 29.4785 29.2227C29.3105 29.4061 29.0923 29.4999 28.875 29.5C28.875 29.5 28.8749 29.5 28.8749 29.5ZM4.125 29.5C3.90772 29.4999 3.68955 29.4061 3.52147 29.2227C3.35204 29.0379 3.25021 28.7785 3.25021 28.5C3.25021 28.2215 3.35204 27.9621 3.52147 27.7773C3.68955 27.5939 3.90772 27.5001 4.125 27.5C4.12503 27.5 4.12506 27.5 4.12509 27.5H28.8749L4.125 29.5ZM6.875 6.5H26.125C26.707 6.5 27.275 6.75183 27.701 7.21654C28.1283 7.68271 28.375 8.3236 28.375 9V21C28.375 21.3341 28.3146 21.664 28.1982 21.9706C28.0818 22.2771 27.9122 22.553 27.701 22.7835C27.4898 23.0138 27.2415 23.194 26.9715 23.316C26.7016 23.4379 26.4141 23.5 26.125 23.5H6.875C6.58587 23.5 6.29838 23.4379 6.02851 23.316C5.7585 23.194 5.5102 23.0138 5.29904 22.7835C5.08779 22.553 4.91817 22.2771 4.80177 21.9706C4.68536 21.664 4.625 21.3341 4.625 21V9C4.625 8.3236 4.87171 7.68271 5.29904 7.21654C5.72503 6.75183 6.293 6.5 6.875 6.5Z" fill="black" stroke="black"></path>
  </symbol>
 <symbol fill="#e30d0d" version="1.1" id="Cancel-icon" xmlns="http://www.w3.org/2000/svg" xmlns:xlink="http://www.w3.org/1999/xlink" xml:space="preserve" viewBox="0 0 300.003 300.003">
    <g id="SVGRepo_bgCarrier" stroke-width="0"></g>
    <g id="SVGRepo_tracerCarrier" stroke-linecap="round" stroke-linejoin="round"></g>
    <g id="SVGRepo_iconCarrier">
      <g>
        <g>
          <path d="M150,0C67.159,0,0.001,67.159,0.001,150c0,82.838,67.157,150.003,149.997,150.003S300.002,232.838,300.002,150 C300.002,67.159,232.839,0,150,0z M206.584,207.171c-5.989,5.984-15.691,5.984-21.675,0l-34.132-34.132l-35.686,35.686 c-5.986,5.984-15.689,5.984-21.672,0c-5.989-5.991-5.989-15.691,0-21.68l35.683-35.683L95.878,118.14 c-5.984-5.991-5.984-15.691,0-21.678c5.986-5.986,15.691-5.986,21.678,0l33.222,33.222l31.671-31.673 c5.986-5.984,15.694-5.986,21.675,0c5.989,5.991,5.989,15.697,0,21.678l-31.668,31.671l34.13,34.132 C212.57,191.475,212.573,201.183,206.584,207.171z"></path>
        </g>
      </g>
    </g>
  </symbol>

</svg>
